solid RopeBody
   facet normal 0.000000e+000 1.000000e+000 0.000000e+000
      outer loop
         vertex -4.826120e-002 2.500000e-003 -6.913060e-002
         vertex -4.806462e-002 2.500000e-003 -7.009547e-002
         vertex -4.835231e-002 2.500000e-003 -7.103720e-002
      endloop
   endfacet
   facet normal 0.000000e+000 1.000000e+000 0.000000e+000
      outer loop
         vertex -4.945226e-002 2.500000e-003 -6.809532e-002
         vertex -4.861730e-002 2.500000e-003 -6.861730e-002
         vertex -5.170560e-002 2.500000e-003 -7.114004e-002
      endloop
   endfacet
   facet normal 0.000000e+000 1.000000e+000 0.000000e+000
      outer loop
         vertex -5.170560e-002 2.500000e-003 -7.114004e-002
         vertex -4.861730e-002 2.500000e-003 -6.861730e-002
         vertex -5.096241e-002 2.500000e-003 -7.178602e-002
      endloop
   endfacet
   facet normal 0.000000e+000 1.000000e+000 0.000000e+000
      outer loop
         vertex -4.835231e-002 2.500000e-003 -7.103720e-002
         vertex -4.905453e-002 2.500000e-003 -7.172751e-002
         vertex -5.000104e-002 2.500000e-003 -7.199906e-002
      endloop
   endfacet
   facet normal 0.000000e+000 1.000000e+000 0.000000e+000
      outer loop
         vertex 4.855496e-002 2.500000e-003 -6.855496e-002
         vertex 4.940951e-002 2.500000e-003 -6.807099e-002
         vertex 5.039141e-002 2.500000e-003 -6.805215e-002
      endloop
   endfacet
   facet normal 0.000000e+000 1.000000e+000 0.000000e+000
      outer loop
         vertex -5.043511e-002 2.500000e-003 -6.803504e-002
         vertex -4.945226e-002 2.500000e-003 -6.809532e-002
         vertex -5.132760e-002 2.500000e-003 -6.845109e-002
      endloop
   endfacet
   facet normal 0.000000e+000 1.000000e+000 0.000000e+000
      outer loop
         vertex -5.132760e-002 2.500000e-003 -6.845109e-002
         vertex -4.945226e-002 2.500000e-003 -6.809532e-002
         vertex -5.170560e-002 2.500000e-003 -7.114004e-002
      endloop
   endfacet
   facet normal 0.000000e+000 1.000000e+000 0.000000e+000
      outer loop
         vertex -5.132760e-002 2.500000e-003 -6.845109e-002
         vertex -5.170560e-002 2.500000e-003 -7.114004e-002
         vertex -5.191338e-002 2.500000e-003 -6.924260e-002
      endloop
   endfacet
   facet normal 0.000000e+000 1.000000e+000 0.000000e+000
      outer loop
         vertex -5.191338e-002 2.500000e-003 -6.924260e-002
         vertex -5.170560e-002 2.500000e-003 -7.114004e-002
         vertex -5.205046e-002 2.500000e-003 -7.021771e-002
      endloop
   endfacet
   facet normal 0.000000e+000 1.000000e+000 0.000000e+000
      outer loop
         vertex 4.793800e-002 2.500000e-003 -7.003704e-002
         vertex 5.191626e-002 2.500000e-003 -7.029177e-002
         vertex 4.819671e-002 2.500000e-003 -7.098443e-002
      endloop
   endfacet
   facet normal 0.000000e+000 1.000000e+000 0.000000e+000
      outer loop
         vertex 4.819671e-002 2.500000e-003 -7.098443e-002
         vertex 5.191626e-002 2.500000e-003 -7.029177e-002
         vertex 5.153884e-002 2.500000e-003 -7.119842e-002
      endloop
   endfacet
   facet normal 0.000000e+000 1.000000e+000 0.000000e+000
      outer loop
         vertex 4.819671e-002 2.500000e-003 -7.098443e-002
         vertex 5.153884e-002 2.500000e-003 -7.119842e-002
         vertex 4.887520e-002 2.500000e-003 -7.169446e-002
      endloop
   endfacet
   facet normal 0.000000e+000 1.000000e+000 0.000000e+000
      outer loop
         vertex 4.887520e-002 2.500000e-003 -7.169446e-002
         vertex 5.153884e-002 2.500000e-003 -7.119842e-002
         vertex 5.077534e-002 2.500000e-003 -7.181612e-002
      endloop
   endfacet
   facet normal 0.000000e+000 1.000000e+000 0.000000e+000
      outer loop
         vertex 4.887520e-002 2.500000e-003 -7.169446e-002
         vertex 5.077534e-002 2.500000e-003 -7.181612e-002
         vertex 4.980986e-002 2.500000e-003 -7.199591e-002
      endloop
   endfacet
   facet normal 0.000000e+000 1.000000e+000 0.000000e+000
      outer loop
         vertex -1.000000e-003 2.500000e-003 2.900956e-009
         vertex 1.000000e-003 2.500000e-003 2.900956e-009
         vertex -1.000000e-003 2.500000e-003 -2.100000e-002
      endloop
   endfacet
   facet normal 0.000000e+000 1.000000e+000 0.000000e+000
      outer loop
         vertex -1.000000e-003 2.500000e-003 -2.100000e-002
         vertex 1.000000e-003 2.500000e-003 2.900956e-009
         vertex 1.000000e-003 2.500000e-003 -2.100000e-002
      endloop
   endfacet
   facet normal 0.000000e+000 1.000000e+000 0.000000e+000
      outer loop
         vertex -1.000000e-003 2.500000e-003 -2.100000e-002
         vertex 1.000000e-003 2.500000e-003 -2.100000e-002
         vertex 4.855496e-002 2.500000e-003 -6.855496e-002
      endloop
   endfacet
   facet normal 0.000000e+000 1.000000e+000 0.000000e+000
      outer loop
         vertex -7.293511e-003 2.500000e-003 -4.359474e-002
         vertex -7.866231e-003 2.500000e-003 -4.127112e-002
         vertex -5.303301e-003 2.500000e-003 -4.030330e-002
      endloop
   endfacet
   facet normal 0.000000e+000 1.000000e+000 0.000000e+000
      outer loop
         vertex -4.861730e-002 2.500000e-003 -6.861730e-002
         vertex -1.729351e-002 2.500000e-003 -4.359474e-002
         vertex -1.714822e-002 2.500000e-003 -4.479132e-002
      endloop
   endfacet
   facet normal 0.000000e+000 1.000000e+000 0.000000e+000
      outer loop
         vertex -5.303301e-003 2.500000e-003 -4.030330e-002
         vertex -7.866231e-003 2.500000e-003 -4.127112e-002
         vertex -6.929096e-003 2.500000e-003 -3.787012e-002
      endloop
   endfacet
   facet normal 0.000000e+000 1.000000e+000 0.000000e+000
      outer loop
         vertex -6.929096e-003 2.500000e-003 -3.787012e-002
         vertex -7.866231e-003 2.500000e-003 -4.127112e-002
         vertex -9.453188e-003 2.500000e-003 -3.947982e-002
      endloop
   endfacet
   facet normal 0.000000e+000 1.000000e+000 0.000000e+000
      outer loop
         vertex -6.929096e-003 2.500000e-003 -3.787012e-002
         vertex -9.453188e-003 2.500000e-003 -3.947982e-002
         vertex -7.500000e-003 2.500000e-003 -3.500000e-002
      endloop
   endfacet
   facet normal 0.000000e+000 1.000000e+000 0.000000e+000
      outer loop
         vertex 1.671071e-002 2.500000e-003 -4.593275e-002
         vertex 1.728343e-002 2.500000e-003 -4.360914e-002
         vertex 4.855496e-002 2.500000e-003 -6.855496e-002
      endloop
   endfacet
   facet normal 0.000000e+000 1.000000e+000 0.000000e+000
      outer loop
         vertex 4.855496e-002 2.500000e-003 -6.855496e-002
         vertex 1.728343e-002 2.500000e-003 -4.360914e-002
         vertex 1.671071e-002 2.500000e-003 -4.128552e-002
      endloop
   endfacet
   facet normal 0.000000e+000 1.000000e+000 0.000000e+000
      outer loop
         vertex 4.855496e-002 2.500000e-003 -6.855496e-002
         vertex 1.671071e-002 2.500000e-003 -4.128552e-002
         vertex -1.000000e-003 2.500000e-003 -2.100000e-002
      endloop
   endfacet
   facet normal 0.000000e+000 1.000000e+000 0.000000e+000
      outer loop
         vertex -1.000000e-003 2.500000e-003 -2.100000e-002
         vertex 1.671071e-002 2.500000e-003 -4.128552e-002
         vertex 1.512376e-002 2.500000e-003 -3.949422e-002
      endloop
   endfacet
   facet normal 0.000000e+000 1.000000e+000 0.000000e+000
      outer loop
         vertex -1.000000e-003 2.500000e-003 -2.100000e-002
         vertex 1.512376e-002 2.500000e-003 -3.949422e-002
         vertex 1.288612e-002 2.500000e-003 -3.864559e-002
      endloop
   endfacet
   facet normal 0.000000e+000 1.000000e+000 0.000000e+000
      outer loop
         vertex -5.000104e-002 2.500000e-003 -7.199906e-002
         vertex -5.096241e-002 2.500000e-003 -7.178602e-002
         vertex -4.835231e-002 2.500000e-003 -7.103720e-002
      endloop
   endfacet
   facet normal 0.000000e+000 1.000000e+000 0.000000e+000
      outer loop
         vertex -4.835231e-002 2.500000e-003 -7.103720e-002
         vertex -5.096241e-002 2.500000e-003 -7.178602e-002
         vertex -4.861730e-002 2.500000e-003 -6.861730e-002
      endloop
   endfacet
   facet normal 0.000000e+000 1.000000e+000 0.000000e+000
      outer loop
         vertex -4.835231e-002 2.500000e-003 -7.103720e-002
         vertex -4.861730e-002 2.500000e-003 -6.861730e-002
         vertex -4.826120e-002 2.500000e-003 -6.913060e-002
      endloop
   endfacet
   facet normal 0.000000e+000 1.000000e+000 0.000000e+000
      outer loop
         vertex -4.826120e-002 2.500000e-003 -6.913060e-002
         vertex -4.861730e-002 2.500000e-003 -6.861730e-002
         vertex -1.714822e-002 2.500000e-003 -4.479132e-002
      endloop
   endfacet
   facet normal 0.000000e+000 1.000000e+000 0.000000e+000
      outer loop
         vertex -4.826120e-002 2.500000e-003 -6.913060e-002
         vertex -1.714822e-002 2.500000e-003 -4.479132e-002
         vertex -1.603607e-002 2.500000e-003 -4.691035e-002
      endloop
   endfacet
   facet normal 0.000000e+000 1.000000e+000 0.000000e+000
      outer loop
         vertex -1.603607e-002 2.500000e-003 -4.691035e-002
         vertex -1.406654e-002 2.500000e-003 -4.826982e-002
         vertex -4.826120e-002 2.500000e-003 -6.913060e-002
      endloop
   endfacet
   facet normal 0.000000e+000 1.000000e+000 0.000000e+000
      outer loop
         vertex -4.826120e-002 2.500000e-003 -6.913060e-002
         vertex -1.406654e-002 2.500000e-003 -4.826982e-002
         vertex -1.169083e-002 2.500000e-003 -4.855829e-002
      endloop
   endfacet
   facet normal 0.000000e+000 1.000000e+000 0.000000e+000
      outer loop
         vertex -4.826120e-002 2.500000e-003 -6.913060e-002
         vertex -1.169083e-002 2.500000e-003 -4.855829e-002
         vertex 7.135307e-018 2.500000e-003 -4.500000e-002
      endloop
   endfacet
   facet normal 0.000000e+000 1.000000e+000 0.000000e+000
      outer loop
         vertex 7.135307e-018 2.500000e-003 -4.500000e-002
         vertex -1.169083e-002 2.500000e-003 -4.855829e-002
         vertex -9.453188e-003 2.500000e-003 -4.770966e-002
      endloop
   endfacet
   facet normal 0.000000e+000 1.000000e+000 0.000000e+000
      outer loop
         vertex 7.135307e-018 2.500000e-003 -4.500000e-002
         vertex -9.453188e-003 2.500000e-003 -4.770966e-002
         vertex -7.866231e-003 2.500000e-003 -4.591836e-002
      endloop
   endfacet
   facet normal 0.000000e+000 1.000000e+000 0.000000e+000
      outer loop
         vertex 5.181660e-002 2.500000e-003 -6.931476e-002
         vertex 5.191626e-002 2.500000e-003 -7.029177e-002
         vertex 5.126389e-002 2.500000e-003 -6.850297e-002
      endloop
   endfacet
   facet normal 0.000000e+000 1.000000e+000 0.000000e+000
      outer loop
         vertex 5.126389e-002 2.500000e-003 -6.850297e-002
         vertex 5.191626e-002 2.500000e-003 -7.029177e-002
         vertex 4.793800e-002 2.500000e-003 -7.003704e-002
      endloop
   endfacet
   facet normal 0.000000e+000 1.000000e+000 0.000000e+000
      outer loop
         vertex 5.126389e-002 2.500000e-003 -6.850297e-002
         vertex 4.793800e-002 2.500000e-003 -7.003704e-002
         vertex 5.039141e-002 2.500000e-003 -6.805215e-002
      endloop
   endfacet
   facet normal 0.000000e+000 1.000000e+000 0.000000e+000
      outer loop
         vertex 5.039141e-002 2.500000e-003 -6.805215e-002
         vertex 4.793800e-002 2.500000e-003 -7.003704e-002
         vertex 4.816144e-002 2.500000e-003 -6.908073e-002
      endloop
   endfacet
   facet normal 0.000000e+000 1.000000e+000 0.000000e+000
      outer loop
         vertex 5.039141e-002 2.500000e-003 -6.805215e-002
         vertex 4.816144e-002 2.500000e-003 -6.908073e-002
         vertex 4.855496e-002 2.500000e-003 -6.855496e-002
      endloop
   endfacet
   facet normal 0.000000e+000 1.000000e+000 0.000000e+000
      outer loop
         vertex 4.855496e-002 2.500000e-003 -6.855496e-002
         vertex 4.816144e-002 2.500000e-003 -6.908073e-002
         vertex 1.512376e-002 2.500000e-003 -4.772406e-002
      endloop
   endfacet
   facet normal 0.000000e+000 1.000000e+000 0.000000e+000
      outer loop
         vertex 4.855496e-002 2.500000e-003 -6.855496e-002
         vertex 1.512376e-002 2.500000e-003 -4.772406e-002
         vertex 1.671071e-002 2.500000e-003 -4.593275e-002
      endloop
   endfacet
   facet normal 0.000000e+000 1.000000e+000 0.000000e+000
      outer loop
         vertex 7.283434e-003 2.500000e-003 -4.360914e-002
         vertex 2.870126e-003 2.500000e-003 -4.192910e-002
         vertex 7.428725e-003 2.500000e-003 -4.241256e-002
      endloop
   endfacet
   facet normal 0.000000e+000 1.000000e+000 0.000000e+000
      outer loop
         vertex 7.428725e-003 2.500000e-003 -4.241256e-002
         vertex 2.870126e-003 2.500000e-003 -4.192910e-002
         vertex 5.303301e-003 2.500000e-003 -4.030330e-002
      endloop
   endfacet
   facet normal 0.000000e+000 1.000000e+000 0.000000e+000
      outer loop
         vertex 7.428725e-003 2.500000e-003 -4.241256e-002
         vertex 5.303301e-003 2.500000e-003 -4.030330e-002
         vertex 8.540880e-003 2.500000e-003 -4.029352e-002
      endloop
   endfacet
   facet normal 0.000000e+000 1.000000e+000 0.000000e+000
      outer loop
         vertex 8.540880e-003 2.500000e-003 -4.029352e-002
         vertex 5.303301e-003 2.500000e-003 -4.030330e-002
         vertex 6.929096e-003 2.500000e-003 -3.787012e-002
      endloop
   endfacet
   facet normal 0.000000e+000 1.000000e+000 0.000000e+000
      outer loop
         vertex 8.540880e-003 2.500000e-003 -4.029352e-002
         vertex 6.929096e-003 2.500000e-003 -3.787012e-002
         vertex 1.051041e-002 2.500000e-003 -3.893406e-002
      endloop
   endfacet
   facet normal 0.000000e+000 1.000000e+000 0.000000e+000
      outer loop
         vertex 7.428725e-003 2.500000e-003 -4.480572e-002
         vertex 8.540880e-003 2.500000e-003 -4.692475e-002
         vertex 7.135307e-018 2.500000e-003 -4.500000e-002
      endloop
   endfacet
   facet normal 0.000000e+000 1.000000e+000 0.000000e+000
      outer loop
         vertex 7.135307e-018 2.500000e-003 -4.500000e-002
         vertex 8.540880e-003 2.500000e-003 -4.692475e-002
         vertex 1.051041e-002 2.500000e-003 -4.828422e-002
      endloop
   endfacet
   facet normal 0.000000e+000 1.000000e+000 0.000000e+000
      outer loop
         vertex 7.135307e-018 2.500000e-003 -4.500000e-002
         vertex 1.051041e-002 2.500000e-003 -4.828422e-002
         vertex 4.816144e-002 2.500000e-003 -6.908073e-002
      endloop
   endfacet
   facet normal 0.000000e+000 1.000000e+000 0.000000e+000
      outer loop
         vertex 4.816144e-002 2.500000e-003 -6.908073e-002
         vertex 1.051041e-002 2.500000e-003 -4.828422e-002
         vertex 1.288612e-002 2.500000e-003 -4.857268e-002
      endloop
   endfacet
   facet normal 0.000000e+000 1.000000e+000 0.000000e+000
      outer loop
         vertex 4.816144e-002 2.500000e-003 -6.908073e-002
         vertex 1.288612e-002 2.500000e-003 -4.857268e-002
         vertex 1.512376e-002 2.500000e-003 -4.772406e-002
      endloop
   endfacet
   facet normal 0.000000e+000 1.000000e+000 0.000000e+000
      outer loop
         vertex 4.424802e-018 2.500000e-003 -2.750000e-002
         vertex -2.870126e-003 2.500000e-003 -2.807090e-002
         vertex -1.000000e-003 2.500000e-003 -2.100000e-002
      endloop
   endfacet
   facet normal 0.000000e+000 1.000000e+000 0.000000e+000
      outer loop
         vertex -1.000000e-003 2.500000e-003 -2.100000e-002
         vertex -2.870126e-003 2.500000e-003 -2.807090e-002
         vertex -5.303301e-003 2.500000e-003 -2.969670e-002
      endloop
   endfacet
   facet normal 0.000000e+000 1.000000e+000 0.000000e+000
      outer loop
         vertex -1.000000e-003 2.500000e-003 -2.100000e-002
         vertex -5.303301e-003 2.500000e-003 -2.969670e-002
         vertex -4.861730e-002 2.500000e-003 -6.861730e-002
      endloop
   endfacet
   facet normal 0.000000e+000 1.000000e+000 0.000000e+000
      outer loop
         vertex -4.861730e-002 2.500000e-003 -6.861730e-002
         vertex -5.303301e-003 2.500000e-003 -2.969670e-002
         vertex -6.929096e-003 2.500000e-003 -3.212987e-002
      endloop
   endfacet
   facet normal 0.000000e+000 1.000000e+000 0.000000e+000
      outer loop
         vertex -5.303301e-003 2.500000e-003 -4.030330e-002
         vertex -2.870126e-003 2.500000e-003 -4.192910e-002
         vertex -7.293511e-003 2.500000e-003 -4.359474e-002
      endloop
   endfacet
   facet normal 0.000000e+000 1.000000e+000 0.000000e+000
      outer loop
         vertex -7.293511e-003 2.500000e-003 -4.359474e-002
         vertex -2.870126e-003 2.500000e-003 -4.192910e-002
         vertex 6.748092e-018 2.500000e-003 -4.250000e-002
      endloop
   endfacet
   facet normal 0.000000e+000 1.000000e+000 0.000000e+000
      outer loop
         vertex -7.293511e-003 2.500000e-003 -4.359474e-002
         vertex 6.748092e-018 2.500000e-003 -4.250000e-002
         vertex -7.866231e-003 2.500000e-003 -4.591836e-002
      endloop
   endfacet
   facet normal 0.000000e+000 1.000000e+000 0.000000e+000
      outer loop
         vertex -7.866231e-003 2.500000e-003 -4.591836e-002
         vertex 6.748092e-018 2.500000e-003 -4.250000e-002
         vertex 2.870126e-003 2.500000e-003 -4.192910e-002
      endloop
   endfacet
   facet normal 0.000000e+000 1.000000e+000 0.000000e+000
      outer loop
         vertex -7.866231e-003 2.500000e-003 -4.591836e-002
         vertex 2.870126e-003 2.500000e-003 -4.192910e-002
         vertex 7.135307e-018 2.500000e-003 -4.500000e-002
      endloop
   endfacet
   facet normal 0.000000e+000 1.000000e+000 0.000000e+000
      outer loop
         vertex 7.135307e-018 2.500000e-003 -4.500000e-002
         vertex 2.870126e-003 2.500000e-003 -4.192910e-002
         vertex 7.283434e-003 2.500000e-003 -4.360914e-002
      endloop
   endfacet
   facet normal 0.000000e+000 1.000000e+000 0.000000e+000
      outer loop
         vertex 7.135307e-018 2.500000e-003 -4.500000e-002
         vertex 7.283434e-003 2.500000e-003 -4.360914e-002
         vertex 7.428725e-003 2.500000e-003 -4.480572e-002
      endloop
   endfacet
   facet normal 0.000000e+000 1.000000e+000 0.000000e+000
      outer loop
         vertex -9.453188e-003 2.500000e-003 -3.947982e-002
         vertex -1.169083e-002 2.500000e-003 -3.863120e-002
         vertex -7.500000e-003 2.500000e-003 -3.500000e-002
      endloop
   endfacet
   facet normal 0.000000e+000 1.000000e+000 0.000000e+000
      outer loop
         vertex -7.500000e-003 2.500000e-003 -3.500000e-002
         vertex -1.169083e-002 2.500000e-003 -3.863120e-002
         vertex -1.406654e-002 2.500000e-003 -3.891966e-002
      endloop
   endfacet
   facet normal 0.000000e+000 1.000000e+000 0.000000e+000
      outer loop
         vertex -7.500000e-003 2.500000e-003 -3.500000e-002
         vertex -1.406654e-002 2.500000e-003 -3.891966e-002
         vertex -6.929096e-003 2.500000e-003 -3.212987e-002
      endloop
   endfacet
   facet normal 0.000000e+000 1.000000e+000 0.000000e+000
      outer loop
         vertex -6.929096e-003 2.500000e-003 -3.212987e-002
         vertex -1.406654e-002 2.500000e-003 -3.891966e-002
         vertex -1.603607e-002 2.500000e-003 -4.027913e-002
      endloop
   endfacet
   facet normal 0.000000e+000 1.000000e+000 0.000000e+000
      outer loop
         vertex -6.929096e-003 2.500000e-003 -3.212987e-002
         vertex -1.603607e-002 2.500000e-003 -4.027913e-002
         vertex -4.861730e-002 2.500000e-003 -6.861730e-002
      endloop
   endfacet
   facet normal 0.000000e+000 1.000000e+000 0.000000e+000
      outer loop
         vertex -4.861730e-002 2.500000e-003 -6.861730e-002
         vertex -1.603607e-002 2.500000e-003 -4.027913e-002
         vertex -1.714822e-002 2.500000e-003 -4.239816e-002
      endloop
   endfacet
   facet normal 0.000000e+000 1.000000e+000 0.000000e+000
      outer loop
         vertex -4.861730e-002 2.500000e-003 -6.861730e-002
         vertex -1.714822e-002 2.500000e-003 -4.239816e-002
         vertex -1.729351e-002 2.500000e-003 -4.359474e-002
      endloop
   endfacet
   facet normal 0.000000e+000 1.000000e+000 0.000000e+000
      outer loop
         vertex 6.929096e-003 2.500000e-003 -3.787012e-002
         vertex 7.500000e-003 2.500000e-003 -3.500000e-002
         vertex 1.051041e-002 2.500000e-003 -3.893406e-002
      endloop
   endfacet
   facet normal 0.000000e+000 1.000000e+000 0.000000e+000
      outer loop
         vertex 1.051041e-002 2.500000e-003 -3.893406e-002
         vertex 7.500000e-003 2.500000e-003 -3.500000e-002
         vertex 6.929096e-003 2.500000e-003 -3.212987e-002
      endloop
   endfacet
   facet normal 0.000000e+000 1.000000e+000 0.000000e+000
      outer loop
         vertex 1.051041e-002 2.500000e-003 -3.893406e-002
         vertex 6.929096e-003 2.500000e-003 -3.212987e-002
         vertex 1.288612e-002 2.500000e-003 -3.864559e-002
      endloop
   endfacet
   facet normal 0.000000e+000 1.000000e+000 0.000000e+000
      outer loop
         vertex 1.288612e-002 2.500000e-003 -3.864559e-002
         vertex 6.929096e-003 2.500000e-003 -3.212987e-002
         vertex 5.303301e-003 2.500000e-003 -2.969670e-002
      endloop
   endfacet
   facet normal 0.000000e+000 1.000000e+000 0.000000e+000
      outer loop
         vertex 1.288612e-002 2.500000e-003 -3.864559e-002
         vertex 5.303301e-003 2.500000e-003 -2.969670e-002
         vertex -1.000000e-003 2.500000e-003 -2.100000e-002
      endloop
   endfacet
   facet normal 0.000000e+000 1.000000e+000 0.000000e+000
      outer loop
         vertex -1.000000e-003 2.500000e-003 -2.100000e-002
         vertex 5.303301e-003 2.500000e-003 -2.969670e-002
         vertex 2.870126e-003 2.500000e-003 -2.807090e-002
      endloop
   endfacet
   facet normal 0.000000e+000 1.000000e+000 0.000000e+000
      outer loop
         vertex -1.000000e-003 2.500000e-003 -2.100000e-002
         vertex 2.870126e-003 2.500000e-003 -2.807090e-002
         vertex 4.424802e-018 2.500000e-003 -2.750000e-002
      endloop
   endfacet
   facet normal -0.000000e+000 -1.000000e+000 0.000000e+000
      outer loop
         vertex 7.428725e-003 -2.500000e-003 -4.480572e-002
         vertex -7.293511e-003 -2.500000e-003 -4.359474e-002
         vertex 7.135307e-018 -2.500000e-003 -4.500000e-002
      endloop
   endfacet
   facet normal -0.000000e+000 -1.000000e+000 0.000000e+000
      outer loop
         vertex -4.945226e-002 -2.500000e-003 -6.809532e-002
         vertex -5.043511e-002 -2.500000e-003 -6.803504e-002
         vertex -5.132760e-002 -2.500000e-003 -6.845109e-002
      endloop
   endfacet
   facet normal -0.000000e+000 -1.000000e+000 0.000000e+000
      outer loop
         vertex -4.835231e-002 -2.500000e-003 -7.103720e-002
         vertex -4.806462e-002 -2.500000e-003 -7.009547e-002
         vertex -4.861730e-002 -2.500000e-003 -6.861730e-002
      endloop
   endfacet
   facet normal -0.000000e+000 -1.000000e+000 0.000000e+000
      outer loop
         vertex -4.861730e-002 -2.500000e-003 -6.861730e-002
         vertex -4.806462e-002 -2.500000e-003 -7.009547e-002
         vertex -4.826120e-002 -2.500000e-003 -6.913060e-002
      endloop
   endfacet
   facet normal -0.000000e+000 -1.000000e+000 0.000000e+000
      outer loop
         vertex 5.191626e-002 -2.500000e-003 -7.029177e-002
         vertex 4.793800e-002 -2.500000e-003 -7.003704e-002
         vertex 4.819671e-002 -2.500000e-003 -7.098443e-002
      endloop
   endfacet
   facet normal -0.000000e+000 -1.000000e+000 0.000000e+000
      outer loop
         vertex 5.191626e-002 -2.500000e-003 -7.029177e-002
         vertex 5.181660e-002 -2.500000e-003 -6.931476e-002
         vertex 4.793800e-002 -2.500000e-003 -7.003704e-002
      endloop
   endfacet
   facet normal -0.000000e+000 -1.000000e+000 0.000000e+000
      outer loop
         vertex 4.793800e-002 -2.500000e-003 -7.003704e-002
         vertex 5.181660e-002 -2.500000e-003 -6.931476e-002
         vertex 5.126389e-002 -2.500000e-003 -6.850297e-002
      endloop
   endfacet
   facet normal -0.000000e+000 -1.000000e+000 0.000000e+000
      outer loop
         vertex 4.793800e-002 -2.500000e-003 -7.003704e-002
         vertex 5.126389e-002 -2.500000e-003 -6.850297e-002
         vertex 4.816144e-002 -2.500000e-003 -6.908073e-002
      endloop
   endfacet
   facet normal -0.000000e+000 -1.000000e+000 0.000000e+000
      outer loop
         vertex 4.816144e-002 -2.500000e-003 -6.908073e-002
         vertex 5.126389e-002 -2.500000e-003 -6.850297e-002
         vertex 5.039141e-002 -2.500000e-003 -6.805215e-002
      endloop
   endfacet
   facet normal -0.000000e+000 -1.000000e+000 0.000000e+000
      outer loop
         vertex 4.816144e-002 -2.500000e-003 -6.908073e-002
         vertex 5.039141e-002 -2.500000e-003 -6.805215e-002
         vertex 4.940951e-002 -2.500000e-003 -6.807099e-002
      endloop
   endfacet
   facet normal -0.000000e+000 -1.000000e+000 0.000000e+000
      outer loop
         vertex -4.861730e-002 -2.500000e-003 -6.861730e-002
         vertex -4.945226e-002 -2.500000e-003 -6.809532e-002
         vertex -5.170560e-002 -2.500000e-003 -7.114004e-002
      endloop
   endfacet
   facet normal -0.000000e+000 -1.000000e+000 0.000000e+000
      outer loop
         vertex -5.170560e-002 -2.500000e-003 -7.114004e-002
         vertex -4.945226e-002 -2.500000e-003 -6.809532e-002
         vertex -5.132760e-002 -2.500000e-003 -6.845109e-002
      endloop
   endfacet
   facet normal -0.000000e+000 -1.000000e+000 0.000000e+000
      outer loop
         vertex -5.170560e-002 -2.500000e-003 -7.114004e-002
         vertex -5.132760e-002 -2.500000e-003 -6.845109e-002
         vertex -5.205046e-002 -2.500000e-003 -7.021771e-002
      endloop
   endfacet
   facet normal -0.000000e+000 -1.000000e+000 0.000000e+000
      outer loop
         vertex -5.205046e-002 -2.500000e-003 -7.021771e-002
         vertex -5.132760e-002 -2.500000e-003 -6.845109e-002
         vertex -5.191338e-002 -2.500000e-003 -6.924260e-002
      endloop
   endfacet
   facet normal -0.000000e+000 -1.000000e+000 0.000000e+000
      outer loop
         vertex -4.905453e-002 -2.500000e-003 -7.172751e-002
         vertex -4.835231e-002 -2.500000e-003 -7.103720e-002
         vertex -5.000104e-002 -2.500000e-003 -7.199906e-002
      endloop
   endfacet
   facet normal -0.000000e+000 -1.000000e+000 0.000000e+000
      outer loop
         vertex -5.000104e-002 -2.500000e-003 -7.199906e-002
         vertex -4.835231e-002 -2.500000e-003 -7.103720e-002
         vertex -4.861730e-002 -2.500000e-003 -6.861730e-002
      endloop
   endfacet
   facet normal -0.000000e+000 -1.000000e+000 0.000000e+000
      outer loop
         vertex -5.000104e-002 -2.500000e-003 -7.199906e-002
         vertex -4.861730e-002 -2.500000e-003 -6.861730e-002
         vertex -5.096241e-002 -2.500000e-003 -7.178602e-002
      endloop
   endfacet
   facet normal -0.000000e+000 -1.000000e+000 0.000000e+000
      outer loop
         vertex -5.096241e-002 -2.500000e-003 -7.178602e-002
         vertex -4.861730e-002 -2.500000e-003 -6.861730e-002
         vertex -5.170560e-002 -2.500000e-003 -7.114004e-002
      endloop
   endfacet
   facet normal -0.000000e+000 -1.000000e+000 0.000000e+000
      outer loop
         vertex 5.077534e-002 -2.500000e-003 -7.181612e-002
         vertex 5.153884e-002 -2.500000e-003 -7.119842e-002
         vertex 4.980986e-002 -2.500000e-003 -7.199591e-002
      endloop
   endfacet
   facet normal -0.000000e+000 -1.000000e+000 0.000000e+000
      outer loop
         vertex 4.980986e-002 -2.500000e-003 -7.199591e-002
         vertex 5.153884e-002 -2.500000e-003 -7.119842e-002
         vertex 5.191626e-002 -2.500000e-003 -7.029177e-002
      endloop
   endfacet
   facet normal -0.000000e+000 -1.000000e+000 0.000000e+000
      outer loop
         vertex 4.980986e-002 -2.500000e-003 -7.199591e-002
         vertex 5.191626e-002 -2.500000e-003 -7.029177e-002
         vertex 4.887520e-002 -2.500000e-003 -7.169446e-002
      endloop
   endfacet
   facet normal -0.000000e+000 -1.000000e+000 0.000000e+000
      outer loop
         vertex 4.887520e-002 -2.500000e-003 -7.169446e-002
         vertex 5.191626e-002 -2.500000e-003 -7.029177e-002
         vertex 4.819671e-002 -2.500000e-003 -7.098443e-002
      endloop
   endfacet
   facet normal -0.000000e+000 -1.000000e+000 0.000000e+000
      outer loop
         vertex 1.000000e-003 -2.500000e-003 2.900956e-009
         vertex -1.000000e-003 -2.500000e-003 2.900956e-009
         vertex 1.000000e-003 -2.500000e-003 -2.100000e-002
      endloop
   endfacet
   facet normal -0.000000e+000 -1.000000e+000 0.000000e+000
      outer loop
         vertex 1.000000e-003 -2.500000e-003 -2.100000e-002
         vertex -1.000000e-003 -2.500000e-003 2.900956e-009
         vertex -1.000000e-003 -2.500000e-003 -2.100000e-002
      endloop
   endfacet
   facet normal -0.000000e+000 -1.000000e+000 0.000000e+000
      outer loop
         vertex 1.000000e-003 -2.500000e-003 -2.100000e-002
         vertex -1.000000e-003 -2.500000e-003 -2.100000e-002
         vertex 4.855496e-002 -2.500000e-003 -6.855496e-002
      endloop
   endfacet
   facet normal -0.000000e+000 -1.000000e+000 0.000000e+000
      outer loop
         vertex 4.940951e-002 -2.500000e-003 -6.807099e-002
         vertex 4.855496e-002 -2.500000e-003 -6.855496e-002
         vertex 4.816144e-002 -2.500000e-003 -6.908073e-002
      endloop
   endfacet
   facet normal -0.000000e+000 -1.000000e+000 0.000000e+000
      outer loop
         vertex 4.816144e-002 -2.500000e-003 -6.908073e-002
         vertex 4.855496e-002 -2.500000e-003 -6.855496e-002
         vertex 1.671071e-002 -2.500000e-003 -4.593275e-002
      endloop
   endfacet
   facet normal -0.000000e+000 -1.000000e+000 0.000000e+000
      outer loop
         vertex 4.816144e-002 -2.500000e-003 -6.908073e-002
         vertex 1.671071e-002 -2.500000e-003 -4.593275e-002
         vertex 1.512376e-002 -2.500000e-003 -4.772406e-002
      endloop
   endfacet
   facet normal -0.000000e+000 -1.000000e+000 0.000000e+000
      outer loop
         vertex 1.512376e-002 -2.500000e-003 -4.772406e-002
         vertex 1.288612e-002 -2.500000e-003 -4.857268e-002
         vertex 4.816144e-002 -2.500000e-003 -6.908073e-002
      endloop
   endfacet
   facet normal -0.000000e+000 -1.000000e+000 0.000000e+000
      outer loop
         vertex 4.816144e-002 -2.500000e-003 -6.908073e-002
         vertex 1.288612e-002 -2.500000e-003 -4.857268e-002
         vertex 1.051041e-002 -2.500000e-003 -4.828422e-002
      endloop
   endfacet
   facet normal -0.000000e+000 -1.000000e+000 0.000000e+000
      outer loop
         vertex 4.816144e-002 -2.500000e-003 -6.908073e-002
         vertex 1.051041e-002 -2.500000e-003 -4.828422e-002
         vertex 7.135307e-018 -2.500000e-003 -4.500000e-002
      endloop
   endfacet
   facet normal -0.000000e+000 -1.000000e+000 0.000000e+000
      outer loop
         vertex 7.135307e-018 -2.500000e-003 -4.500000e-002
         vertex 1.051041e-002 -2.500000e-003 -4.828422e-002
         vertex 8.540880e-003 -2.500000e-003 -4.692475e-002
      endloop
   endfacet
   facet normal -0.000000e+000 -1.000000e+000 0.000000e+000
      outer loop
         vertex 7.135307e-018 -2.500000e-003 -4.500000e-002
         vertex 8.540880e-003 -2.500000e-003 -4.692475e-002
         vertex 7.428725e-003 -2.500000e-003 -4.480572e-002
      endloop
   endfacet
   facet normal -0.000000e+000 -1.000000e+000 0.000000e+000
      outer loop
         vertex -7.293511e-003 -2.500000e-003 -4.359474e-002
         vertex -7.866231e-003 -2.500000e-003 -4.591836e-002
         vertex 7.135307e-018 -2.500000e-003 -4.500000e-002
      endloop
   endfacet
   facet normal -0.000000e+000 -1.000000e+000 0.000000e+000
      outer loop
         vertex 7.135307e-018 -2.500000e-003 -4.500000e-002
         vertex -7.866231e-003 -2.500000e-003 -4.591836e-002
         vertex -9.453188e-003 -2.500000e-003 -4.770966e-002
      endloop
   endfacet
   facet normal -0.000000e+000 -1.000000e+000 0.000000e+000
      outer loop
         vertex 7.135307e-018 -2.500000e-003 -4.500000e-002
         vertex -9.453188e-003 -2.500000e-003 -4.770966e-002
         vertex -4.826120e-002 -2.500000e-003 -6.913060e-002
      endloop
   endfacet
   facet normal -0.000000e+000 -1.000000e+000 0.000000e+000
      outer loop
         vertex -4.826120e-002 -2.500000e-003 -6.913060e-002
         vertex -9.453188e-003 -2.500000e-003 -4.770966e-002
         vertex -1.169083e-002 -2.500000e-003 -4.855829e-002
      endloop
   endfacet
   facet normal -0.000000e+000 -1.000000e+000 0.000000e+000
      outer loop
         vertex 1.512376e-002 -2.500000e-003 -3.949422e-002
         vertex 1.671071e-002 -2.500000e-003 -4.128552e-002
         vertex 4.855496e-002 -2.500000e-003 -6.855496e-002
      endloop
   endfacet
   facet normal -0.000000e+000 -1.000000e+000 0.000000e+000
      outer loop
         vertex 4.855496e-002 -2.500000e-003 -6.855496e-002
         vertex 1.671071e-002 -2.500000e-003 -4.128552e-002
         vertex 1.728343e-002 -2.500000e-003 -4.360914e-002
      endloop
   endfacet
   facet normal -0.000000e+000 -1.000000e+000 0.000000e+000
      outer loop
         vertex 4.855496e-002 -2.500000e-003 -6.855496e-002
         vertex 1.728343e-002 -2.500000e-003 -4.360914e-002
         vertex 1.671071e-002 -2.500000e-003 -4.593275e-002
      endloop
   endfacet
   facet normal -0.000000e+000 -1.000000e+000 0.000000e+000
      outer loop
         vertex -1.169083e-002 -2.500000e-003 -4.855829e-002
         vertex -1.406654e-002 -2.500000e-003 -4.826982e-002
         vertex -4.826120e-002 -2.500000e-003 -6.913060e-002
      endloop
   endfacet
   facet normal -0.000000e+000 -1.000000e+000 0.000000e+000
      outer loop
         vertex -4.826120e-002 -2.500000e-003 -6.913060e-002
         vertex -1.406654e-002 -2.500000e-003 -4.826982e-002
         vertex -1.603607e-002 -2.500000e-003 -4.691035e-002
      endloop
   endfacet
   facet normal -0.000000e+000 -1.000000e+000 0.000000e+000
      outer loop
         vertex -4.826120e-002 -2.500000e-003 -6.913060e-002
         vertex -1.603607e-002 -2.500000e-003 -4.691035e-002
         vertex -4.861730e-002 -2.500000e-003 -6.861730e-002
      endloop
   endfacet
   facet normal -0.000000e+000 -1.000000e+000 0.000000e+000
      outer loop
         vertex -4.861730e-002 -2.500000e-003 -6.861730e-002
         vertex -1.603607e-002 -2.500000e-003 -4.691035e-002
         vertex -1.714822e-002 -2.500000e-003 -4.479132e-002
      endloop
   endfacet
   facet normal -0.000000e+000 -1.000000e+000 0.000000e+000
      outer loop
         vertex -4.861730e-002 -2.500000e-003 -6.861730e-002
         vertex -1.714822e-002 -2.500000e-003 -4.479132e-002
         vertex -1.729351e-002 -2.500000e-003 -4.359474e-002
      endloop
   endfacet
   facet normal -0.000000e+000 -1.000000e+000 0.000000e+000
      outer loop
         vertex -1.729351e-002 -2.500000e-003 -4.359474e-002
         vertex -1.714822e-002 -2.500000e-003 -4.239816e-002
         vertex -4.861730e-002 -2.500000e-003 -6.861730e-002
      endloop
   endfacet
   facet normal -0.000000e+000 -1.000000e+000 0.000000e+000
      outer loop
         vertex -4.861730e-002 -2.500000e-003 -6.861730e-002
         vertex -1.714822e-002 -2.500000e-003 -4.239816e-002
         vertex -1.603607e-002 -2.500000e-003 -4.027913e-002
      endloop
   endfacet
   facet normal -0.000000e+000 -1.000000e+000 0.000000e+000
      outer loop
         vertex -4.861730e-002 -2.500000e-003 -6.861730e-002
         vertex -1.603607e-002 -2.500000e-003 -4.027913e-002
         vertex -1.000000e-003 -2.500000e-003 -2.100000e-002
      endloop
   endfacet
   facet normal -0.000000e+000 -1.000000e+000 0.000000e+000
      outer loop
         vertex -1.000000e-003 -2.500000e-003 -2.100000e-002
         vertex -1.603607e-002 -2.500000e-003 -4.027913e-002
         vertex -1.406654e-002 -2.500000e-003 -3.891966e-002
      endloop
   endfacet
   facet normal -0.000000e+000 -1.000000e+000 0.000000e+000
      outer loop
         vertex -1.000000e-003 -2.500000e-003 -2.100000e-002
         vertex -1.406654e-002 -2.500000e-003 -3.891966e-002
         vertex -1.169083e-002 -2.500000e-003 -3.863120e-002
      endloop
   endfacet
   facet normal -0.000000e+000 -1.000000e+000 0.000000e+000
      outer loop
         vertex -2.870126e-003 -2.500000e-003 -2.807090e-002
         vertex 4.424802e-018 -2.500000e-003 -2.750000e-002
         vertex -1.000000e-003 -2.500000e-003 -2.100000e-002
      endloop
   endfacet
   facet normal -0.000000e+000 -1.000000e+000 0.000000e+000
      outer loop
         vertex 1.051041e-002 -2.500000e-003 -3.893406e-002
         vertex 7.500000e-003 -2.500000e-003 -3.500000e-002
         vertex 8.540880e-003 -2.500000e-003 -4.029352e-002
      endloop
   endfacet
   facet normal -0.000000e+000 -1.000000e+000 0.000000e+000
      outer loop
         vertex 8.540880e-003 -2.500000e-003 -4.029352e-002
         vertex 7.500000e-003 -2.500000e-003 -3.500000e-002
         vertex 6.929096e-003 -2.500000e-003 -3.787012e-002
      endloop
   endfacet
   facet normal -0.000000e+000 -1.000000e+000 0.000000e+000
      outer loop
         vertex 8.540880e-003 -2.500000e-003 -4.029352e-002
         vertex 6.929096e-003 -2.500000e-003 -3.787012e-002
         vertex 7.428725e-003 -2.500000e-003 -4.241256e-002
      endloop
   endfacet
   facet normal -0.000000e+000 -1.000000e+000 0.000000e+000
      outer loop
         vertex 7.428725e-003 -2.500000e-003 -4.241256e-002
         vertex 6.929096e-003 -2.500000e-003 -3.787012e-002
         vertex 5.303301e-003 -2.500000e-003 -4.030330e-002
      endloop
   endfacet
   facet normal -0.000000e+000 -1.000000e+000 0.000000e+000
      outer loop
         vertex 7.428725e-003 -2.500000e-003 -4.241256e-002
         vertex 5.303301e-003 -2.500000e-003 -4.030330e-002
         vertex 7.283434e-003 -2.500000e-003 -4.360914e-002
      endloop
   endfacet
   facet normal -0.000000e+000 -1.000000e+000 0.000000e+000
      outer loop
         vertex 7.283434e-003 -2.500000e-003 -4.360914e-002
         vertex 5.303301e-003 -2.500000e-003 -4.030330e-002
         vertex 2.870126e-003 -2.500000e-003 -4.192910e-002
      endloop
   endfacet
   facet normal -0.000000e+000 -1.000000e+000 0.000000e+000
      outer loop
         vertex 7.283434e-003 -2.500000e-003 -4.360914e-002
         vertex 2.870126e-003 -2.500000e-003 -4.192910e-002
         vertex 7.428725e-003 -2.500000e-003 -4.480572e-002
      endloop
   endfacet
   facet normal -0.000000e+000 -1.000000e+000 0.000000e+000
      outer loop
         vertex 7.428725e-003 -2.500000e-003 -4.480572e-002
         vertex 2.870126e-003 -2.500000e-003 -4.192910e-002
         vertex 6.748092e-018 -2.500000e-003 -4.250000e-002
      endloop
   endfacet
   facet normal -0.000000e+000 -1.000000e+000 0.000000e+000
      outer loop
         vertex 7.428725e-003 -2.500000e-003 -4.480572e-002
         vertex 6.748092e-018 -2.500000e-003 -4.250000e-002
         vertex -7.293511e-003 -2.500000e-003 -4.359474e-002
      endloop
   endfacet
   facet normal -0.000000e+000 -1.000000e+000 0.000000e+000
      outer loop
         vertex 6.748092e-018 -2.500000e-003 -4.250000e-002
         vertex -2.870126e-003 -2.500000e-003 -4.192910e-002
         vertex -7.293511e-003 -2.500000e-003 -4.359474e-002
      endloop
   endfacet
   facet normal -0.000000e+000 -1.000000e+000 0.000000e+000
      outer loop
         vertex -7.293511e-003 -2.500000e-003 -4.359474e-002
         vertex -2.870126e-003 -2.500000e-003 -4.192910e-002
         vertex -5.303301e-003 -2.500000e-003 -4.030330e-002
      endloop
   endfacet
   facet normal -0.000000e+000 -1.000000e+000 0.000000e+000
      outer loop
         vertex -7.293511e-003 -2.500000e-003 -4.359474e-002
         vertex -5.303301e-003 -2.500000e-003 -4.030330e-002
         vertex -7.866231e-003 -2.500000e-003 -4.127112e-002
      endloop
   endfacet
   facet normal -0.000000e+000 -1.000000e+000 0.000000e+000
      outer loop
         vertex -7.866231e-003 -2.500000e-003 -4.127112e-002
         vertex -5.303301e-003 -2.500000e-003 -4.030330e-002
         vertex -6.929096e-003 -2.500000e-003 -3.787012e-002
      endloop
   endfacet
   facet normal -0.000000e+000 -1.000000e+000 0.000000e+000
      outer loop
         vertex -7.866231e-003 -2.500000e-003 -4.127112e-002
         vertex -6.929096e-003 -2.500000e-003 -3.787012e-002
         vertex -9.453188e-003 -2.500000e-003 -3.947982e-002
      endloop
   endfacet
   facet normal -0.000000e+000 -1.000000e+000 0.000000e+000
      outer loop
         vertex -9.453188e-003 -2.500000e-003 -3.947982e-002
         vertex -6.929096e-003 -2.500000e-003 -3.787012e-002
         vertex -7.500000e-003 -2.500000e-003 -3.500000e-002
      endloop
   endfacet
   facet normal -0.000000e+000 -1.000000e+000 0.000000e+000
      outer loop
         vertex -9.453188e-003 -2.500000e-003 -3.947982e-002
         vertex -7.500000e-003 -2.500000e-003 -3.500000e-002
         vertex -1.169083e-002 -2.500000e-003 -3.863120e-002
      endloop
   endfacet
   facet normal -0.000000e+000 -1.000000e+000 0.000000e+000
      outer loop
         vertex -1.169083e-002 -2.500000e-003 -3.863120e-002
         vertex -7.500000e-003 -2.500000e-003 -3.500000e-002
         vertex -6.929096e-003 -2.500000e-003 -3.212987e-002
      endloop
   endfacet
   facet normal -0.000000e+000 -1.000000e+000 0.000000e+000
      outer loop
         vertex -1.169083e-002 -2.500000e-003 -3.863120e-002
         vertex -6.929096e-003 -2.500000e-003 -3.212987e-002
         vertex -1.000000e-003 -2.500000e-003 -2.100000e-002
      endloop
   endfacet
   facet normal -0.000000e+000 -1.000000e+000 0.000000e+000
      outer loop
         vertex -1.000000e-003 -2.500000e-003 -2.100000e-002
         vertex -6.929096e-003 -2.500000e-003 -3.212987e-002
         vertex -5.303301e-003 -2.500000e-003 -2.969670e-002
      endloop
   endfacet
   facet normal -0.000000e+000 -1.000000e+000 0.000000e+000
      outer loop
         vertex -1.000000e-003 -2.500000e-003 -2.100000e-002
         vertex -5.303301e-003 -2.500000e-003 -2.969670e-002
         vertex -2.870126e-003 -2.500000e-003 -2.807090e-002
      endloop
   endfacet
   facet normal -0.000000e+000 -1.000000e+000 0.000000e+000
      outer loop
         vertex 1.051041e-002 -2.500000e-003 -3.893406e-002
         vertex 1.288612e-002 -2.500000e-003 -3.864559e-002
         vertex 7.500000e-003 -2.500000e-003 -3.500000e-002
      endloop
   endfacet
   facet normal -0.000000e+000 -1.000000e+000 0.000000e+000
      outer loop
         vertex 7.500000e-003 -2.500000e-003 -3.500000e-002
         vertex 1.288612e-002 -2.500000e-003 -3.864559e-002
         vertex 1.512376e-002 -2.500000e-003 -3.949422e-002
      endloop
   endfacet
   facet normal -0.000000e+000 -1.000000e+000 0.000000e+000
      outer loop
         vertex 7.500000e-003 -2.500000e-003 -3.500000e-002
         vertex 1.512376e-002 -2.500000e-003 -3.949422e-002
         vertex 6.929096e-003 -2.500000e-003 -3.212987e-002
      endloop
   endfacet
   facet normal -0.000000e+000 -1.000000e+000 0.000000e+000
      outer loop
         vertex 6.929096e-003 -2.500000e-003 -3.212987e-002
         vertex 1.512376e-002 -2.500000e-003 -3.949422e-002
         vertex 4.855496e-002 -2.500000e-003 -6.855496e-002
      endloop
   endfacet
   facet normal -0.000000e+000 -1.000000e+000 0.000000e+000
      outer loop
         vertex 6.929096e-003 -2.500000e-003 -3.212987e-002
         vertex 4.855496e-002 -2.500000e-003 -6.855496e-002
         vertex 5.303301e-003 -2.500000e-003 -2.969670e-002
      endloop
   endfacet
   facet normal -0.000000e+000 -1.000000e+000 0.000000e+000
      outer loop
         vertex 5.303301e-003 -2.500000e-003 -2.969670e-002
         vertex 4.855496e-002 -2.500000e-003 -6.855496e-002
         vertex -1.000000e-003 -2.500000e-003 -2.100000e-002
      endloop
   endfacet
   facet normal -0.000000e+000 -1.000000e+000 0.000000e+000
      outer loop
         vertex 5.303301e-003 -2.500000e-003 -2.969670e-002
         vertex -1.000000e-003 -2.500000e-003 -2.100000e-002
         vertex 2.870126e-003 -2.500000e-003 -2.807090e-002
      endloop
   endfacet
   facet normal -0.000000e+000 -1.000000e+000 0.000000e+000
      outer loop
         vertex 2.870126e-003 -2.500000e-003 -2.807090e-002
         vertex -1.000000e-003 -2.500000e-003 -2.100000e-002
         vertex 4.424802e-018 -2.500000e-003 -2.750000e-002
      endloop
   endfacet
   facet normal -4.472136e-001 0.000000e+000 -8.944272e-001
      outer loop
         vertex 7.135307e-018 2.500000e-003 -4.500000e-002
         vertex 4.816144e-002 2.500000e-003 -6.908073e-002
         vertex 7.135307e-018 -2.500000e-003 -4.500000e-002
      endloop
   endfacet
   facet normal -4.472136e-001 0.000000e+000 -8.944272e-001
      outer loop
         vertex 7.135307e-018 -2.500000e-003 -4.500000e-002
         vertex 4.816144e-002 2.500000e-003 -6.908073e-002
         vertex 4.816144e-002 -2.500000e-003 -6.908073e-002
      endloop
   endfacet
   facet normal 4.472136e-001 0.000000e+000 -8.944272e-001
      outer loop
         vertex -4.826120e-002 2.500000e-003 -6.913060e-002
         vertex 1.407420e-017 2.500000e-003 -4.500000e-002
         vertex -4.826120e-002 -2.500000e-003 -6.913060e-002
      endloop
   endfacet
   facet normal 4.472136e-001 0.000000e+000 -8.944272e-001
      outer loop
         vertex -4.826120e-002 -2.500000e-003 -6.913060e-002
         vertex 1.407420e-017 2.500000e-003 -4.500000e-002
         vertex 1.407420e-017 -2.500000e-003 -4.500000e-002
      endloop
   endfacet
   facet normal 9.595384e-001 0.000000e+000 2.815778e-001
      outer loop
         vertex -4.826120e-002 2.500000e-003 -6.913060e-002
         vertex -4.826120e-002 -2.500000e-003 -6.913060e-002
         vertex -4.806462e-002 -2.500000e-003 -7.009547e-002
      endloop
   endfacet
   facet normal 9.932199e-001 0.000000e+000 1.162506e-001
      outer loop
         vertex -4.826120e-002 2.500000e-003 -6.913060e-002
         vertex -4.806462e-002 -2.500000e-003 -7.009547e-002
         vertex -4.806462e-002 2.500000e-003 -7.009547e-002
      endloop
   endfacet
   facet normal 9.776071e-001 0.000000e+000 -2.104384e-001
      outer loop
         vertex -4.806462e-002 2.500000e-003 -7.009547e-002
         vertex -4.806462e-002 -2.500000e-003 -7.009547e-002
         vertex -4.835231e-002 -2.500000e-003 -7.103720e-002
      endloop
   endfacet
   facet normal 9.283128e-001 0.000000e+000 -3.718001e-001
      outer loop
         vertex -4.806462e-002 2.500000e-003 -7.009547e-002
         vertex -4.835231e-002 -2.500000e-003 -7.103720e-002
         vertex -4.835231e-002 2.500000e-003 -7.103720e-002
      endloop
   endfacet
   facet normal 7.586976e-001 0.000000e+000 -6.514430e-001
      outer loop
         vertex -4.835231e-002 2.500000e-003 -7.103720e-002
         vertex -4.835231e-002 -2.500000e-003 -7.103720e-002
         vertex -4.905453e-002 -2.500000e-003 -7.172751e-002
      endloop
   endfacet
   facet normal 6.383767e-001 0.000000e+000 -7.697241e-001
      outer loop
         vertex -4.835231e-002 2.500000e-003 -7.103720e-002
         vertex -4.905453e-002 -2.500000e-003 -7.172751e-002
         vertex -4.905453e-002 2.500000e-003 -7.172751e-002
      endloop
   endfacet
   facet normal 3.558749e-001 0.000000e+000 -9.345336e-001
      outer loop
         vertex -4.905453e-002 2.500000e-003 -7.172751e-002
         vertex -4.905453e-002 -2.500000e-003 -7.172751e-002
         vertex -5.000104e-002 -2.500000e-003 -7.199906e-002
      endloop
   endfacet
   facet normal 1.936940e-001 0.000000e+000 -9.810620e-001
      outer loop
         vertex -4.905453e-002 2.500000e-003 -7.172751e-002
         vertex -5.000104e-002 -2.500000e-003 -7.199906e-002
         vertex -5.000104e-002 2.500000e-003 -7.199906e-002
      endloop
   endfacet
   facet normal -1.332142e-001 0.000000e+000 -9.910873e-001
      outer loop
         vertex -5.000104e-002 2.500000e-003 -7.199906e-002
         vertex -5.000104e-002 -2.500000e-003 -7.199906e-002
         vertex -5.096241e-002 -2.500000e-003 -7.178602e-002
      endloop
   endfacet
   facet normal -2.979414e-001 0.000000e+000 -9.545842e-001
      outer loop
         vertex -5.000104e-002 2.500000e-003 -7.199906e-002
         vertex -5.096241e-002 -2.500000e-003 -7.178602e-002
         vertex -5.096241e-002 2.500000e-003 -7.178602e-002
      endloop
   endfacet
   facet normal -5.900113e-001 0.000000e+000 -8.073950e-001
      outer loop
         vertex -5.096241e-002 2.500000e-003 -7.178602e-002
         vertex -5.096241e-002 -2.500000e-003 -7.178602e-002
         vertex -5.170560e-002 -2.500000e-003 -7.114004e-002
      endloop
   endfacet
   facet normal -7.173539e-001 0.000000e+000 -6.967090e-001
      outer loop
         vertex -5.096241e-002 2.500000e-003 -7.178602e-002
         vertex -5.170560e-002 -2.500000e-003 -7.114004e-002
         vertex -5.170560e-002 2.500000e-003 -7.114004e-002
      endloop
   endfacet
   facet normal -9.037858e-001 0.000000e+000 -4.279850e-001
      outer loop
         vertex -5.170560e-002 2.500000e-003 -7.114004e-002
         vertex -5.170560e-002 -2.500000e-003 -7.114004e-002
         vertex -5.205046e-002 -2.500000e-003 -7.021771e-002
      endloop
   endfacet
   facet normal -9.628752e-001 0.000000e+000 -2.699470e-001
      outer loop
         vertex -5.170560e-002 2.500000e-003 -7.114004e-002
         vertex -5.205046e-002 -2.500000e-003 -7.021771e-002
         vertex -5.205046e-002 2.500000e-003 -7.021771e-002
      endloop
   endfacet
   facet normal -9.984769e-001 0.000000e+000 5.517136e-002
      outer loop
         vertex -5.205046e-002 2.500000e-003 -7.021771e-002
         vertex -5.205046e-002 -2.500000e-003 -7.021771e-002
         vertex -5.191338e-002 -2.500000e-003 -6.924260e-002
      endloop
   endfacet
   facet normal -9.749893e-001 0.000000e+000 2.222518e-001
      outer loop
         vertex -5.205046e-002 2.500000e-003 -7.021771e-002
         vertex -5.191338e-002 -2.500000e-003 -6.924260e-002
         vertex -5.191338e-002 2.500000e-003 -6.924260e-002
      endloop
   endfacet
   facet normal -8.511307e-001 0.000000e+000 5.249538e-001
      outer loop
         vertex -5.191338e-002 2.500000e-003 -6.924260e-002
         vertex -5.191338e-002 -2.500000e-003 -6.924260e-002
         vertex -5.132760e-002 -2.500000e-003 -6.845109e-002
      endloop
   endfacet
   facet normal -7.507598e-001 0.000000e+000 6.605753e-001
      outer loop
         vertex -5.191338e-002 2.500000e-003 -6.924260e-002
         vertex -5.132760e-002 -2.500000e-003 -6.845109e-002
         vertex -5.132760e-002 2.500000e-003 -6.845109e-002
      endloop
   endfacet
   facet normal -4.974650e-001 0.000000e+000 8.674841e-001
      outer loop
         vertex -5.132760e-002 2.500000e-003 -6.845109e-002
         vertex -5.132760e-002 -2.500000e-003 -6.845109e-002
         vertex -5.043511e-002 -2.500000e-003 -6.803504e-002
      endloop
   endfacet
   facet normal -3.445412e-001 0.000000e+000 9.387712e-001
      outer loop
         vertex -5.132760e-002 2.500000e-003 -6.845109e-002
         vertex -5.043511e-002 -2.500000e-003 -6.803504e-002
         vertex -5.043511e-002 2.500000e-003 -6.803504e-002
      endloop
   endfacet
   facet normal -2.321052e-002 0.000000e+000 9.997306e-001
      outer loop
         vertex -5.043511e-002 2.500000e-003 -6.803504e-002
         vertex -5.043511e-002 -2.500000e-003 -6.803504e-002
         vertex -4.945226e-002 -2.500000e-003 -6.809532e-002
      endloop
   endfacet
   facet normal 1.451964e-001 0.000000e+000 9.894028e-001
      outer loop
         vertex -5.043511e-002 2.500000e-003 -6.803504e-002
         vertex -4.945226e-002 -2.500000e-003 -6.809532e-002
         vertex -4.945226e-002 2.500000e-003 -6.809532e-002
      endloop
   endfacet
   facet normal 4.566703e-001 0.000000e+000 8.896360e-001
      outer loop
         vertex -4.945226e-002 2.500000e-003 -6.809532e-002
         vertex -4.945226e-002 -2.500000e-003 -6.809532e-002
         vertex -4.861730e-002 -2.500000e-003 -6.861730e-002
      endloop
   endfacet
   facet normal 5.997373e-001 0.000000e+000 8.001969e-001
      outer loop
         vertex -4.945226e-002 2.500000e-003 -6.809532e-002
         vertex -4.861730e-002 -2.500000e-003 -6.861730e-002
         vertex -4.861730e-002 2.500000e-003 -6.861730e-002
      endloop
   endfacet
   facet normal -7.071068e-001 0.000000e+000 7.071068e-001
      outer loop
         vertex -1.000000e-003 2.500000e-003 -2.100000e-002
         vertex -4.861730e-002 2.500000e-003 -6.861730e-002
         vertex -1.000000e-003 -2.500000e-003 -2.100000e-002
      endloop
   endfacet
   facet normal -7.071068e-001 0.000000e+000 7.071068e-001
      outer loop
         vertex -1.000000e-003 -2.500000e-003 -2.100000e-002
         vertex -4.861730e-002 2.500000e-003 -6.861730e-002
         vertex -4.861730e-002 -2.500000e-003 -6.861730e-002
      endloop
   endfacet
   facet normal -1.000000e+000 0.000000e+000 -1.890699e-024
      outer loop
         vertex -1.000000e-003 2.500000e-003 2.900956e-009
         vertex -1.000000e-003 2.500000e-003 -2.100000e-002
         vertex -1.000000e-003 -2.500000e-003 2.900956e-009
      endloop
   endfacet
   facet normal -1.000000e+000 0.000000e+000 -1.890699e-024
      outer loop
         vertex -1.000000e-003 -2.500000e-003 2.900956e-009
         vertex -1.000000e-003 2.500000e-003 -2.100000e-002
         vertex -1.000000e-003 -2.500000e-003 -2.100000e-002
      endloop
   endfacet
   facet normal -1.548860e-016 0.000000e+000 1.000000e+000
      outer loop
         vertex 1.000000e-003 2.500000e-003 2.900956e-009
         vertex -1.000000e-003 2.500000e-003 2.900956e-009
         vertex 1.000000e-003 -2.500000e-003 2.900956e-009
      endloop
   endfacet
   facet normal -1.548860e-016 0.000000e+000 1.000000e+000
      outer loop
         vertex 1.000000e-003 -2.500000e-003 2.900956e-009
         vertex -1.000000e-003 2.500000e-003 2.900956e-009
         vertex -1.000000e-003 -2.500000e-003 2.900956e-009
      endloop
   endfacet
   facet normal 1.000000e+000 0.000000e+000 6.711728e-016
      outer loop
         vertex 1.000000e-003 2.500000e-003 -2.100000e-002
         vertex 1.000000e-003 2.500000e-003 2.900956e-009
         vertex 1.000000e-003 -2.500000e-003 -2.100000e-002
      endloop
   endfacet
   facet normal 1.000000e+000 0.000000e+000 6.711728e-016
      outer loop
         vertex 1.000000e-003 -2.500000e-003 -2.100000e-002
         vertex 1.000000e-003 2.500000e-003 2.900956e-009
         vertex 1.000000e-003 -2.500000e-003 2.900956e-009
      endloop
   endfacet
   facet normal 7.071068e-001 0.000000e+000 7.071068e-001
      outer loop
         vertex 4.855496e-002 2.500000e-003 -6.855496e-002
         vertex 1.000000e-003 2.500000e-003 -2.100000e-002
         vertex 4.855496e-002 -2.500000e-003 -6.855496e-002
      endloop
   endfacet
   facet normal 7.071068e-001 0.000000e+000 7.071068e-001
      outer loop
         vertex 4.855496e-002 -2.500000e-003 -6.855496e-002
         vertex 1.000000e-003 2.500000e-003 -2.100000e-002
         vertex 1.000000e-003 -2.500000e-003 -2.100000e-002
      endloop
   endfacet
   facet normal -5.642490e-001 0.000000e+000 8.256046e-001
      outer loop
         vertex 4.855496e-002 2.500000e-003 -6.855496e-002
         vertex 4.855496e-002 -2.500000e-003 -6.855496e-002
         vertex 4.940951e-002 -2.500000e-003 -6.807099e-002
      endloop
   endfacet
   facet normal -4.178478e-001 0.000000e+000 9.085171e-001
      outer loop
         vertex 4.855496e-002 2.500000e-003 -6.855496e-002
         vertex 4.940951e-002 -2.500000e-003 -6.807099e-002
         vertex 4.940951e-002 2.500000e-003 -6.807099e-002
      endloop
   endfacet
   facet normal -1.032282e-001 0.000000e+000 9.946577e-001
      outer loop
         vertex 4.940951e-002 2.500000e-003 -6.807099e-002
         vertex 4.940951e-002 -2.500000e-003 -6.807099e-002
         vertex 5.039141e-002 -2.500000e-003 -6.805215e-002
      endloop
   endfacet
   facet normal 6.499013e-002 0.000000e+000 9.978859e-001
      outer loop
         vertex 4.940951e-002 2.500000e-003 -6.807099e-002
         vertex 5.039141e-002 -2.500000e-003 -6.805215e-002
         vertex 5.039141e-002 2.500000e-003 -6.805215e-002
      endloop
   endfacet
   facet normal 3.826830e-001 0.000000e+000 9.238797e-001
      outer loop
         vertex 5.039141e-002 2.500000e-003 -6.805215e-002
         vertex 5.039141e-002 -2.500000e-003 -6.805215e-002
         vertex 5.126389e-002 -2.500000e-003 -6.850297e-002
      endloop
   endfacet
   facet normal 5.321577e-001 0.000000e+000 8.466453e-001
      outer loop
         vertex 5.039141e-002 2.500000e-003 -6.805215e-002
         vertex 5.126389e-002 -2.500000e-003 -6.850297e-002
         vertex 5.126389e-002 2.500000e-003 -6.850297e-002
      endloop
   endfacet
   facet normal 7.763219e-001 0.000000e+000 6.303366e-001
      outer loop
         vertex 5.126389e-002 2.500000e-003 -6.850297e-002
         vertex 5.126389e-002 -2.500000e-003 -6.850297e-002
         vertex 5.181660e-002 -2.500000e-003 -6.931476e-002
      endloop
   endfacet
   facet normal 8.710117e-001 0.000000e+000 4.912623e-001
      outer loop
         vertex 5.126389e-002 2.500000e-003 -6.850297e-002
         vertex 5.181660e-002 -2.500000e-003 -6.931476e-002
         vertex 5.181660e-002 2.500000e-003 -6.931476e-002
      endloop
   endfacet
   facet normal 9.827748e-001 0.000000e+000 1.848072e-001
      outer loop
         vertex 5.181660e-002 2.500000e-003 -6.931476e-002
         vertex 5.181660e-002 -2.500000e-003 -6.931476e-002
         vertex 5.191626e-002 -2.500000e-003 -7.029177e-002
      endloop
   endfacet
   facet normal 9.998481e-001 0.000000e+000 1.742646e-002
      outer loop
         vertex 5.181660e-002 2.500000e-003 -6.931476e-002
         vertex 5.191626e-002 -2.500000e-003 -7.029177e-002
         vertex 5.191626e-002 2.500000e-003 -7.029177e-002
      endloop
   endfacet
   facet normal 9.522617e-001 0.000000e+000 -3.052828e-001
      outer loop
         vertex 5.191626e-002 2.500000e-003 -7.029177e-002
         vertex 5.191626e-002 -2.500000e-003 -7.029177e-002
         vertex 5.153884e-002 -2.500000e-003 -7.119842e-002
      endloop
   endfacet
   facet normal 8.876020e-001 0.000000e+000 -4.606112e-001
      outer loop
         vertex 5.191626e-002 2.500000e-003 -7.029177e-002
         vertex 5.153884e-002 -2.500000e-003 -7.119842e-002
         vertex 5.153884e-002 2.500000e-003 -7.119842e-002
      endloop
   endfacet
   facet normal 6.921402e-001 0.000000e+000 -7.217631e-001
      outer loop
         vertex 5.153884e-002 2.500000e-003 -7.119842e-002
         vertex 5.153884e-002 -2.500000e-003 -7.119842e-002
         vertex 5.077534e-002 -2.500000e-003 -7.181612e-002
      endloop
   endfacet
   facet normal 5.613379e-001 0.000000e+000 -8.275867e-001
      outer loop
         vertex 5.153884e-002 2.500000e-003 -7.119842e-002
         vertex 5.077534e-002 -2.500000e-003 -7.181612e-002
         vertex 5.077534e-002 2.500000e-003 -7.181612e-002
      endloop
   endfacet
   facet normal 2.651302e-001 0.000000e+000 -9.642126e-001
      outer loop
         vertex 5.077534e-002 2.500000e-003 -7.181612e-002
         vertex 5.077534e-002 -2.500000e-003 -7.181612e-002
         vertex 4.980986e-002 -2.500000e-003 -7.199591e-002
      endloop
   endfacet
   facet normal 9.972460e-002 0.000000e+000 -9.950151e-001
      outer loop
         vertex 5.077534e-002 2.500000e-003 -7.181612e-002
         vertex 4.980986e-002 -2.500000e-003 -7.199591e-002
         vertex 4.980986e-002 2.500000e-003 -7.199591e-002
      endloop
   endfacet
   facet normal -2.258077e-001 0.000000e+000 -9.741719e-001
      outer loop
         vertex 4.980986e-002 2.500000e-003 -7.199591e-002
         vertex 4.980986e-002 -2.500000e-003 -7.199591e-002
         vertex 4.887520e-002 -2.500000e-003 -7.169446e-002
      endloop
   endfacet
   facet normal -3.859343e-001 0.000000e+000 -9.225262e-001
      outer loop
         vertex 4.980986e-002 2.500000e-003 -7.199591e-002
         vertex 4.887520e-002 -2.500000e-003 -7.169446e-002
         vertex 4.887520e-002 2.500000e-003 -7.169446e-002
      endloop
   endfacet
   facet normal -6.622990e-001 0.000000e+000 -7.492396e-001
      outer loop
         vertex 4.887520e-002 2.500000e-003 -7.169446e-002
         vertex 4.887520e-002 -2.500000e-003 -7.169446e-002
         vertex 4.819671e-002 -2.500000e-003 -7.098443e-002
      endloop
   endfacet
   facet normal -7.785370e-001 0.000000e+000 -6.275986e-001
      outer loop
         vertex 4.887520e-002 2.500000e-003 -7.169446e-002
         vertex 4.819671e-002 -2.500000e-003 -7.098443e-002
         vertex 4.819671e-002 2.500000e-003 -7.098443e-002
      endloop
   endfacet
   facet normal -9.390973e-001 0.000000e+000 -3.436513e-001
      outer loop
         vertex 4.819671e-002 2.500000e-003 -7.098443e-002
         vertex 4.819671e-002 -2.500000e-003 -7.098443e-002
         vertex 4.793800e-002 -2.500000e-003 -7.003704e-002
      endloop
   endfacet
   facet normal -9.834195e-001 0.000000e+000 -1.813450e-001
      outer loop
         vertex 4.819671e-002 2.500000e-003 -7.098443e-002
         vertex 4.793800e-002 -2.500000e-003 -7.003704e-002
         vertex 4.793800e-002 2.500000e-003 -7.003704e-002
      endloop
   endfacet
   facet normal -9.894612e-001 0.000000e+000 1.447979e-001
      outer loop
         vertex 4.793800e-002 2.500000e-003 -7.003704e-002
         vertex 4.793800e-002 -2.500000e-003 -7.003704e-002
         vertex 4.816144e-002 -2.500000e-003 -6.908073e-002
      endloop
   endfacet
   facet normal -9.511808e-001 0.000000e+000 3.086344e-001
      outer loop
         vertex 4.793800e-002 2.500000e-003 -7.003704e-002
         vertex 4.816144e-002 -2.500000e-003 -6.908073e-002
         vertex 4.816144e-002 2.500000e-003 -6.908073e-002
      endloop
   endfacet
   facet normal -9.915434e-001 0.000000e+000 1.297753e-001
      outer loop
         vertex 6.929096e-003 2.500000e-003 -3.787012e-002
         vertex 7.500000e-003 -2.500000e-003 -3.500000e-002
         vertex 7.500000e-003 2.500000e-003 -3.500000e-002
      endloop
   endfacet
   facet normal -9.915434e-001 0.000000e+000 -1.297753e-001
      outer loop
         vertex 7.500000e-003 2.500000e-003 -3.500000e-002
         vertex 7.500000e-003 -2.500000e-003 -3.500000e-002
         vertex 6.929096e-003 -2.500000e-003 -3.212987e-002
      endloop
   endfacet
   facet normal -9.657295e-001 0.000000e+000 -2.595505e-001
      outer loop
         vertex 7.500000e-003 2.500000e-003 -3.500000e-002
         vertex 6.929096e-003 -2.500000e-003 -3.212987e-002
         vertex 6.929096e-003 2.500000e-003 -3.212987e-002
      endloop
   endfacet
   facet normal -8.664038e-001 0.000000e+000 -4.993440e-001
      outer loop
         vertex 6.929096e-003 2.500000e-003 -3.212987e-002
         vertex 6.929096e-003 -2.500000e-003 -3.212987e-002
         vertex 5.303301e-003 -2.500000e-003 -2.969670e-002
      endloop
   endfacet
   facet normal -7.928920e-001 0.000000e+000 -6.093621e-001
      outer loop
         vertex 6.929096e-003 2.500000e-003 -3.212987e-002
         vertex 5.303301e-003 -2.500000e-003 -2.969670e-002
         vertex 5.303301e-003 2.500000e-003 -2.969670e-002
      endloop
   endfacet
   facet normal -6.093621e-001 0.000000e+000 -7.928920e-001
      outer loop
         vertex 5.303301e-003 2.500000e-003 -2.969670e-002
         vertex 5.303301e-003 -2.500000e-003 -2.969670e-002
         vertex 2.870126e-003 -2.500000e-003 -2.807090e-002
      endloop
   endfacet
   facet normal -4.993440e-001 0.000000e+000 -8.664038e-001
      outer loop
         vertex 5.303301e-003 2.500000e-003 -2.969670e-002
         vertex 2.870126e-003 -2.500000e-003 -2.807090e-002
         vertex 2.870126e-003 2.500000e-003 -2.807090e-002
      endloop
   endfacet
   facet normal -2.595505e-001 0.000000e+000 -9.657295e-001
      outer loop
         vertex 2.870126e-003 2.500000e-003 -2.807090e-002
         vertex 2.870126e-003 -2.500000e-003 -2.807090e-002
         vertex 3.218710e-018 -2.500000e-003 -2.750000e-002
      endloop
   endfacet
   facet normal -1.297753e-001 0.000000e+000 -9.915434e-001
      outer loop
         vertex 2.870126e-003 2.500000e-003 -2.807090e-002
         vertex 3.218710e-018 -2.500000e-003 -2.750000e-002
         vertex 3.218710e-018 2.500000e-003 -2.750000e-002
      endloop
   endfacet
   facet normal 1.297753e-001 0.000000e+000 -9.915434e-001
      outer loop
         vertex 3.218710e-018 2.500000e-003 -2.750000e-002
         vertex 3.218710e-018 -2.500000e-003 -2.750000e-002
         vertex -2.870126e-003 -2.500000e-003 -2.807090e-002
      endloop
   endfacet
   facet normal 2.595505e-001 0.000000e+000 -9.657295e-001
      outer loop
         vertex 3.218710e-018 2.500000e-003 -2.750000e-002
         vertex -2.870126e-003 -2.500000e-003 -2.807090e-002
         vertex -2.870126e-003 2.500000e-003 -2.807090e-002
      endloop
   endfacet
   facet normal 4.993440e-001 0.000000e+000 -8.664038e-001
      outer loop
         vertex -2.870126e-003 2.500000e-003 -2.807090e-002
         vertex -2.870126e-003 -2.500000e-003 -2.807090e-002
         vertex -5.303301e-003 -2.500000e-003 -2.969670e-002
      endloop
   endfacet
   facet normal 6.093621e-001 0.000000e+000 -7.928920e-001
      outer loop
         vertex -2.870126e-003 2.500000e-003 -2.807090e-002
         vertex -5.303301e-003 -2.500000e-003 -2.969670e-002
         vertex -5.303301e-003 2.500000e-003 -2.969670e-002
      endloop
   endfacet
   facet normal 7.928920e-001 0.000000e+000 -6.093621e-001
      outer loop
         vertex -5.303301e-003 2.500000e-003 -2.969670e-002
         vertex -5.303301e-003 -2.500000e-003 -2.969670e-002
         vertex -6.929096e-003 -2.500000e-003 -3.212987e-002
      endloop
   endfacet
   facet normal 8.664038e-001 0.000000e+000 -4.993440e-001
      outer loop
         vertex -5.303301e-003 2.500000e-003 -2.969670e-002
         vertex -6.929096e-003 -2.500000e-003 -3.212987e-002
         vertex -6.929096e-003 2.500000e-003 -3.212987e-002
      endloop
   endfacet
   facet normal 9.657295e-001 0.000000e+000 -2.595505e-001
      outer loop
         vertex -6.929096e-003 2.500000e-003 -3.212987e-002
         vertex -6.929096e-003 -2.500000e-003 -3.212987e-002
         vertex -7.500000e-003 -2.500000e-003 -3.500000e-002
      endloop
   endfacet
   facet normal 9.915434e-001 0.000000e+000 -1.297753e-001
      outer loop
         vertex -6.929096e-003 2.500000e-003 -3.212987e-002
         vertex -7.500000e-003 -2.500000e-003 -3.500000e-002
         vertex -7.500000e-003 2.500000e-003 -3.500000e-002
      endloop
   endfacet
   facet normal 9.915434e-001 0.000000e+000 1.297753e-001
      outer loop
         vertex -7.500000e-003 2.500000e-003 -3.500000e-002
         vertex -7.500000e-003 -2.500000e-003 -3.500000e-002
         vertex -6.929096e-003 -2.500000e-003 -3.787012e-002
      endloop
   endfacet
   facet normal 9.657295e-001 0.000000e+000 2.595505e-001
      outer loop
         vertex -7.500000e-003 2.500000e-003 -3.500000e-002
         vertex -6.929096e-003 -2.500000e-003 -3.787012e-002
         vertex -6.929096e-003 2.500000e-003 -3.787012e-002
      endloop
   endfacet
   facet normal 8.664038e-001 0.000000e+000 4.993440e-001
      outer loop
         vertex -6.929096e-003 2.500000e-003 -3.787012e-002
         vertex -6.929096e-003 -2.500000e-003 -3.787012e-002
         vertex -5.303301e-003 -2.500000e-003 -4.030330e-002
      endloop
   endfacet
   facet normal 7.928920e-001 0.000000e+000 6.093621e-001
      outer loop
         vertex -6.929096e-003 2.500000e-003 -3.787012e-002
         vertex -5.303301e-003 -2.500000e-003 -4.030330e-002
         vertex -5.303301e-003 2.500000e-003 -4.030330e-002
      endloop
   endfacet
   facet normal 6.093621e-001 0.000000e+000 7.928920e-001
      outer loop
         vertex -5.303301e-003 2.500000e-003 -4.030330e-002
         vertex -5.303301e-003 -2.500000e-003 -4.030330e-002
         vertex -2.870126e-003 -2.500000e-003 -4.192910e-002
      endloop
   endfacet
   facet normal 4.993440e-001 0.000000e+000 8.664038e-001
      outer loop
         vertex -5.303301e-003 2.500000e-003 -4.030330e-002
         vertex -2.870126e-003 -2.500000e-003 -4.192910e-002
         vertex -2.870126e-003 2.500000e-003 -4.192910e-002
      endloop
   endfacet
   facet normal 2.595505e-001 0.000000e+000 9.657295e-001
      outer loop
         vertex -2.870126e-003 2.500000e-003 -4.192910e-002
         vertex -2.870126e-003 -2.500000e-003 -4.192910e-002
         vertex 5.370364e-018 -2.500000e-003 -4.250000e-002
      endloop
   endfacet
   facet normal 1.297753e-001 0.000000e+000 9.915434e-001
      outer loop
         vertex -2.870126e-003 2.500000e-003 -4.192910e-002
         vertex 5.370364e-018 -2.500000e-003 -4.250000e-002
         vertex 5.370364e-018 2.500000e-003 -4.250000e-002
      endloop
   endfacet
   facet normal -1.297753e-001 0.000000e+000 9.915434e-001
      outer loop
         vertex 5.370364e-018 2.500000e-003 -4.250000e-002
         vertex 5.370364e-018 -2.500000e-003 -4.250000e-002
         vertex 2.870126e-003 -2.500000e-003 -4.192910e-002
      endloop
   endfacet
   facet normal -2.595505e-001 0.000000e+000 9.657295e-001
      outer loop
         vertex 5.370364e-018 2.500000e-003 -4.250000e-002
         vertex 2.870126e-003 -2.500000e-003 -4.192910e-002
         vertex 2.870126e-003 2.500000e-003 -4.192910e-002
      endloop
   endfacet
   facet normal -4.993440e-001 0.000000e+000 8.664038e-001
      outer loop
         vertex 2.870126e-003 2.500000e-003 -4.192910e-002
         vertex 2.870126e-003 -2.500000e-003 -4.192910e-002
         vertex 5.303301e-003 -2.500000e-003 -4.030330e-002
      endloop
   endfacet
   facet normal -6.093621e-001 0.000000e+000 7.928920e-001
      outer loop
         vertex 2.870126e-003 2.500000e-003 -4.192910e-002
         vertex 5.303301e-003 -2.500000e-003 -4.030330e-002
         vertex 5.303301e-003 2.500000e-003 -4.030330e-002
      endloop
   endfacet
   facet normal -7.928920e-001 0.000000e+000 6.093621e-001
      outer loop
         vertex 5.303301e-003 2.500000e-003 -4.030330e-002
         vertex 5.303301e-003 -2.500000e-003 -4.030330e-002
         vertex 6.929096e-003 -2.500000e-003 -3.787012e-002
      endloop
   endfacet
   facet normal -8.664038e-001 0.000000e+000 4.993440e-001
      outer loop
         vertex 5.303301e-003 2.500000e-003 -4.030330e-002
         vertex 6.929096e-003 -2.500000e-003 -3.787012e-002
         vertex 6.929096e-003 2.500000e-003 -3.787012e-002
      endloop
   endfacet
   facet normal -9.657295e-001 0.000000e+000 2.595505e-001
      outer loop
         vertex 6.929096e-003 2.500000e-003 -3.787012e-002
         vertex 6.929096e-003 -2.500000e-003 -3.787012e-002
         vertex 7.500000e-003 -2.500000e-003 -3.500000e-002
      endloop
   endfacet
   facet normal 9.967714e-001 0.000000e+000 8.029205e-002
      outer loop
         vertex 7.428725e-003 2.500000e-003 -4.480572e-002
         vertex 7.283434e-003 2.500000e-003 -4.360914e-002
         vertex 7.283434e-003 -2.500000e-003 -4.360914e-002
      endloop
   endfacet
   facet normal 9.967714e-001 0.000000e+000 -8.029205e-002
      outer loop
         vertex 7.283434e-003 -2.500000e-003 -4.360914e-002
         vertex 7.283434e-003 2.500000e-003 -4.360914e-002
         vertex 7.428725e-003 -2.500000e-003 -4.241256e-002
      endloop
   endfacet
   facet normal 9.870222e-001 0.000000e+000 1.605841e-001
      outer loop
         vertex 7.283434e-003 -2.500000e-003 -4.360914e-002
         vertex 7.428725e-003 -2.500000e-003 -4.480572e-002
         vertex 7.428725e-003 2.500000e-003 -4.480572e-002
      endloop
   endfacet
   facet normal 9.205357e-001 0.000000e+000 3.906584e-001
      outer loop
         vertex 7.428725e-003 2.500000e-003 -4.480572e-002
         vertex 7.428725e-003 -2.500000e-003 -4.480572e-002
         vertex 8.540880e-003 -2.500000e-003 -4.692475e-002
      endloop
   endfacet
   facet normal 8.444295e-001 0.000000e+000 5.356667e-001
      outer loop
         vertex 7.428725e-003 2.500000e-003 -4.480572e-002
         vertex 8.540880e-003 -2.500000e-003 -4.692475e-002
         vertex 8.540880e-003 2.500000e-003 -4.692475e-002
      endloop
   endfacet
   facet normal 6.335458e-001 0.000000e+000 7.737052e-001
      outer loop
         vertex 8.540880e-003 2.500000e-003 -4.692475e-002
         vertex 8.540880e-003 -2.500000e-003 -4.692475e-002
         vertex 1.051041e-002 -2.500000e-003 -4.828422e-002
      endloop
   endfacet
   facet normal 4.987684e-001 0.000000e+000 8.667353e-001
      outer loop
         vertex 8.540880e-003 2.500000e-003 -4.692475e-002
         vertex 1.051041e-002 -2.500000e-003 -4.828422e-002
         vertex 1.051041e-002 2.500000e-003 -4.828422e-002
      endloop
   endfacet
   facet normal 2.014183e-001 0.000000e+000 9.795053e-001
      outer loop
         vertex 1.051041e-002 2.500000e-003 -4.828422e-002
         vertex 1.051041e-002 -2.500000e-003 -4.828422e-002
         vertex 1.288612e-002 -2.500000e-003 -4.857268e-002
      endloop
   endfacet
   facet normal 3.884554e-002 0.000000e+000 9.992452e-001
      outer loop
         vertex 1.051041e-002 2.500000e-003 -4.828422e-002
         vertex 1.288612e-002 -2.500000e-003 -4.857268e-002
         vertex 1.288612e-002 2.500000e-003 -4.857268e-002
      endloop
   endfacet
   facet normal -2.768518e-001 0.000000e+000 9.609126e-001
      outer loop
         vertex 1.288612e-002 2.500000e-003 -4.857268e-002
         vertex 1.288612e-002 -2.500000e-003 -4.857268e-002
         vertex 1.512376e-002 -2.500000e-003 -4.772406e-002
      endloop
   endfacet
   facet normal -4.299764e-001 0.000000e+000 9.028401e-001
      outer loop
         vertex 1.288612e-002 2.500000e-003 -4.857268e-002
         vertex 1.512376e-002 -2.500000e-003 -4.772406e-002
         vertex 1.512376e-002 2.500000e-003 -4.772406e-002
      endloop
   endfacet
   facet normal -6.916984e-001 0.000000e+000 7.221864e-001
      outer loop
         vertex 1.512376e-002 2.500000e-003 -4.772406e-002
         vertex 1.512376e-002 -2.500000e-003 -4.772406e-002
         vertex 1.671071e-002 -2.500000e-003 -4.593275e-002
      endloop
   endfacet
   facet normal -8.002959e-001 0.000000e+000 5.996052e-001
      outer loop
         vertex 1.512376e-002 2.500000e-003 -4.772406e-002
         vertex 1.671071e-002 -2.500000e-003 -4.593275e-002
         vertex 1.671071e-002 2.500000e-003 -4.593275e-002
      endloop
   endfacet
   facet normal -9.480854e-001 0.000000e+000 3.180160e-001
      outer loop
         vertex 1.671071e-002 2.500000e-003 -4.593275e-002
         vertex 1.671071e-002 -2.500000e-003 -4.593275e-002
         vertex 1.728343e-002 -2.500000e-003 -4.360914e-002
      endloop
   endfacet
   facet normal -9.872773e-001 0.000000e+000 1.590080e-001
      outer loop
         vertex 1.671071e-002 2.500000e-003 -4.593275e-002
         vertex 1.728343e-002 -2.500000e-003 -4.360914e-002
         vertex 1.728343e-002 2.500000e-003 -4.360914e-002
      endloop
   endfacet
   facet normal -9.872773e-001 0.000000e+000 -1.590080e-001
      outer loop
         vertex 1.728343e-002 2.500000e-003 -4.360914e-002
         vertex 1.728343e-002 -2.500000e-003 -4.360914e-002
         vertex 1.671071e-002 -2.500000e-003 -4.128552e-002
      endloop
   endfacet
   facet normal -9.480854e-001 0.000000e+000 -3.180160e-001
      outer loop
         vertex 1.728343e-002 2.500000e-003 -4.360914e-002
         vertex 1.671071e-002 -2.500000e-003 -4.128552e-002
         vertex 1.671071e-002 2.500000e-003 -4.128552e-002
      endloop
   endfacet
   facet normal -8.002959e-001 0.000000e+000 -5.996052e-001
      outer loop
         vertex 1.671071e-002 2.500000e-003 -4.128552e-002
         vertex 1.671071e-002 -2.500000e-003 -4.128552e-002
         vertex 1.512376e-002 -2.500000e-003 -3.949422e-002
      endloop
   endfacet
   facet normal -6.916984e-001 0.000000e+000 -7.221865e-001
      outer loop
         vertex 1.671071e-002 2.500000e-003 -4.128552e-002
         vertex 1.512376e-002 -2.500000e-003 -3.949422e-002
         vertex 1.512376e-002 2.500000e-003 -3.949422e-002
      endloop
   endfacet
   facet normal -4.299764e-001 0.000000e+000 -9.028401e-001
      outer loop
         vertex 1.512376e-002 2.500000e-003 -3.949422e-002
         vertex 1.512376e-002 -2.500000e-003 -3.949422e-002
         vertex 1.288612e-002 -2.500000e-003 -3.864559e-002
      endloop
   endfacet
   facet normal -2.768518e-001 0.000000e+000 -9.609126e-001
      outer loop
         vertex 1.512376e-002 2.500000e-003 -3.949422e-002
         vertex 1.288612e-002 -2.500000e-003 -3.864559e-002
         vertex 1.288612e-002 2.500000e-003 -3.864559e-002
      endloop
   endfacet
   facet normal 3.884555e-002 0.000000e+000 -9.992452e-001
      outer loop
         vertex 1.288612e-002 2.500000e-003 -3.864559e-002
         vertex 1.288612e-002 -2.500000e-003 -3.864559e-002
         vertex 1.051041e-002 -2.500000e-003 -3.893406e-002
      endloop
   endfacet
   facet normal 2.014183e-001 0.000000e+000 -9.795053e-001
      outer loop
         vertex 1.288612e-002 2.500000e-003 -3.864559e-002
         vertex 1.051041e-002 -2.500000e-003 -3.893406e-002
         vertex 1.051041e-002 2.500000e-003 -3.893406e-002
      endloop
   endfacet
   facet normal 4.987684e-001 0.000000e+000 -8.667353e-001
      outer loop
         vertex 1.051041e-002 2.500000e-003 -3.893406e-002
         vertex 1.051041e-002 -2.500000e-003 -3.893406e-002
         vertex 8.540880e-003 -2.500000e-003 -4.029352e-002
      endloop
   endfacet
   facet normal 6.335458e-001 0.000000e+000 -7.737052e-001
      outer loop
         vertex 1.051041e-002 2.500000e-003 -3.893406e-002
         vertex 8.540880e-003 -2.500000e-003 -4.029352e-002
         vertex 8.540880e-003 2.500000e-003 -4.029352e-002
      endloop
   endfacet
   facet normal 8.444295e-001 0.000000e+000 -5.356667e-001
      outer loop
         vertex 8.540880e-003 2.500000e-003 -4.029352e-002
         vertex 8.540880e-003 -2.500000e-003 -4.029352e-002
         vertex 7.428725e-003 -2.500000e-003 -4.241256e-002
      endloop
   endfacet
   facet normal 9.205357e-001 0.000000e+000 -3.906584e-001
      outer loop
         vertex 8.540880e-003 2.500000e-003 -4.029352e-002
         vertex 7.428725e-003 -2.500000e-003 -4.241256e-002
         vertex 7.428725e-003 2.500000e-003 -4.241256e-002
      endloop
   endfacet
   facet normal 9.870222e-001 0.000000e+000 -1.605841e-001
      outer loop
         vertex 7.428725e-003 2.500000e-003 -4.241256e-002
         vertex 7.428725e-003 -2.500000e-003 -4.241256e-002
         vertex 7.283434e-003 2.500000e-003 -4.360914e-002
      endloop
   endfacet
   facet normal 9.967714e-001 0.000000e+000 8.029205e-002
      outer loop
         vertex -1.714822e-002 2.500000e-003 -4.479132e-002
         vertex -1.729351e-002 2.500000e-003 -4.359474e-002
         vertex -1.729351e-002 -2.500000e-003 -4.359474e-002
      endloop
   endfacet
   facet normal 9.967714e-001 0.000000e+000 -8.029205e-002
      outer loop
         vertex -1.729351e-002 -2.500000e-003 -4.359474e-002
         vertex -1.729351e-002 2.500000e-003 -4.359474e-002
         vertex -1.714822e-002 -2.500000e-003 -4.239816e-002
      endloop
   endfacet
   facet normal 9.870222e-001 0.000000e+000 1.605841e-001
      outer loop
         vertex -1.729351e-002 -2.500000e-003 -4.359474e-002
         vertex -1.714822e-002 -2.500000e-003 -4.479132e-002
         vertex -1.714822e-002 2.500000e-003 -4.479132e-002
      endloop
   endfacet
   facet normal 9.205357e-001 0.000000e+000 3.906584e-001
      outer loop
         vertex -1.714822e-002 2.500000e-003 -4.479132e-002
         vertex -1.714822e-002 -2.500000e-003 -4.479132e-002
         vertex -1.603607e-002 -2.500000e-003 -4.691035e-002
      endloop
   endfacet
   facet normal 8.444295e-001 0.000000e+000 5.356667e-001
      outer loop
         vertex -1.714822e-002 2.500000e-003 -4.479132e-002
         vertex -1.603607e-002 -2.500000e-003 -4.691035e-002
         vertex -1.603607e-002 2.500000e-003 -4.691035e-002
      endloop
   endfacet
   facet normal 6.335458e-001 0.000000e+000 7.737052e-001
      outer loop
         vertex -1.603607e-002 2.500000e-003 -4.691035e-002
         vertex -1.603607e-002 -2.500000e-003 -4.691035e-002
         vertex -1.406654e-002 -2.500000e-003 -4.826982e-002
      endloop
   endfacet
   facet normal 4.987684e-001 0.000000e+000 8.667353e-001
      outer loop
         vertex -1.603607e-002 2.500000e-003 -4.691035e-002
         vertex -1.406654e-002 -2.500000e-003 -4.826982e-002
         vertex -1.406654e-002 2.500000e-003 -4.826982e-002
      endloop
   endfacet
   facet normal 2.014183e-001 0.000000e+000 9.795053e-001
      outer loop
         vertex -1.406654e-002 2.500000e-003 -4.826982e-002
         vertex -1.406654e-002 -2.500000e-003 -4.826982e-002
         vertex -1.169083e-002 -2.500000e-003 -4.855829e-002
      endloop
   endfacet
   facet normal 3.884554e-002 0.000000e+000 9.992452e-001
      outer loop
         vertex -1.406654e-002 2.500000e-003 -4.826982e-002
         vertex -1.169083e-002 -2.500000e-003 -4.855829e-002
         vertex -1.169083e-002 2.500000e-003 -4.855829e-002
      endloop
   endfacet
   facet normal -2.768518e-001 0.000000e+000 9.609126e-001
      outer loop
         vertex -1.169083e-002 2.500000e-003 -4.855829e-002
         vertex -1.169083e-002 -2.500000e-003 -4.855829e-002
         vertex -9.453188e-003 -2.500000e-003 -4.770966e-002
      endloop
   endfacet
   facet normal -4.299764e-001 0.000000e+000 9.028401e-001
      outer loop
         vertex -1.169083e-002 2.500000e-003 -4.855829e-002
         vertex -9.453188e-003 -2.500000e-003 -4.770966e-002
         vertex -9.453188e-003 2.500000e-003 -4.770966e-002
      endloop
   endfacet
   facet normal -6.916984e-001 0.000000e+000 7.221864e-001
      outer loop
         vertex -9.453188e-003 2.500000e-003 -4.770966e-002
         vertex -9.453188e-003 -2.500000e-003 -4.770966e-002
         vertex -7.866231e-003 -2.500000e-003 -4.591836e-002
      endloop
   endfacet
   facet normal -8.002959e-001 0.000000e+000 5.996052e-001
      outer loop
         vertex -9.453188e-003 2.500000e-003 -4.770966e-002
         vertex -7.866231e-003 -2.500000e-003 -4.591836e-002
         vertex -7.866231e-003 2.500000e-003 -4.591836e-002
      endloop
   endfacet
   facet normal -9.480854e-001 0.000000e+000 3.180160e-001
      outer loop
         vertex -7.866231e-003 2.500000e-003 -4.591836e-002
         vertex -7.866231e-003 -2.500000e-003 -4.591836e-002
         vertex -7.293511e-003 -2.500000e-003 -4.359474e-002
      endloop
   endfacet
   facet normal -9.872773e-001 0.000000e+000 1.590080e-001
      outer loop
         vertex -7.866231e-003 2.500000e-003 -4.591836e-002
         vertex -7.293511e-003 -2.500000e-003 -4.359474e-002
         vertex -7.293511e-003 2.500000e-003 -4.359474e-002
      endloop
   endfacet
   facet normal -9.872773e-001 0.000000e+000 -1.590080e-001
      outer loop
         vertex -7.293511e-003 2.500000e-003 -4.359474e-002
         vertex -7.293511e-003 -2.500000e-003 -4.359474e-002
         vertex -7.866231e-003 -2.500000e-003 -4.127112e-002
      endloop
   endfacet
   facet normal -9.480854e-001 0.000000e+000 -3.180160e-001
      outer loop
         vertex -7.293511e-003 2.500000e-003 -4.359474e-002
         vertex -7.866231e-003 -2.500000e-003 -4.127112e-002
         vertex -7.866231e-003 2.500000e-003 -4.127112e-002
      endloop
   endfacet
   facet normal -8.002959e-001 0.000000e+000 -5.996052e-001
      outer loop
         vertex -7.866231e-003 2.500000e-003 -4.127112e-002
         vertex -7.866231e-003 -2.500000e-003 -4.127112e-002
         vertex -9.453188e-003 -2.500000e-003 -3.947982e-002
      endloop
   endfacet
   facet normal -6.916984e-001 0.000000e+000 -7.221865e-001
      outer loop
         vertex -7.866231e-003 2.500000e-003 -4.127112e-002
         vertex -9.453188e-003 -2.500000e-003 -3.947982e-002
         vertex -9.453188e-003 2.500000e-003 -3.947982e-002
      endloop
   endfacet
   facet normal -4.299764e-001 0.000000e+000 -9.028401e-001
      outer loop
         vertex -9.453188e-003 2.500000e-003 -3.947982e-002
         vertex -9.453188e-003 -2.500000e-003 -3.947982e-002
         vertex -1.169083e-002 -2.500000e-003 -3.863120e-002
      endloop
   endfacet
   facet normal -2.768518e-001 0.000000e+000 -9.609126e-001
      outer loop
         vertex -9.453188e-003 2.500000e-003 -3.947982e-002
         vertex -1.169083e-002 -2.500000e-003 -3.863120e-002
         vertex -1.169083e-002 2.500000e-003 -3.863120e-002
      endloop
   endfacet
   facet normal 3.884555e-002 0.000000e+000 -9.992452e-001
      outer loop
         vertex -1.169083e-002 2.500000e-003 -3.863120e-002
         vertex -1.169083e-002 -2.500000e-003 -3.863120e-002
         vertex -1.406654e-002 -2.500000e-003 -3.891966e-002
      endloop
   endfacet
   facet normal 2.014183e-001 0.000000e+000 -9.795053e-001
      outer loop
         vertex -1.169083e-002 2.500000e-003 -3.863120e-002
         vertex -1.406654e-002 -2.500000e-003 -3.891966e-002
         vertex -1.406654e-002 2.500000e-003 -3.891966e-002
      endloop
   endfacet
   facet normal 4.987684e-001 0.000000e+000 -8.667353e-001
      outer loop
         vertex -1.406654e-002 2.500000e-003 -3.891966e-002
         vertex -1.406654e-002 -2.500000e-003 -3.891966e-002
         vertex -1.603607e-002 -2.500000e-003 -4.027913e-002
      endloop
   endfacet
   facet normal 6.335458e-001 0.000000e+000 -7.737052e-001
      outer loop
         vertex -1.406654e-002 2.500000e-003 -3.891966e-002
         vertex -1.603607e-002 -2.500000e-003 -4.027913e-002
         vertex -1.603607e-002 2.500000e-003 -4.027913e-002
      endloop
   endfacet
   facet normal 8.444295e-001 0.000000e+000 -5.356667e-001
      outer loop
         vertex -1.603607e-002 2.500000e-003 -4.027913e-002
         vertex -1.603607e-002 -2.500000e-003 -4.027913e-002
         vertex -1.714822e-002 -2.500000e-003 -4.239816e-002
      endloop
   endfacet
   facet normal 9.205357e-001 0.000000e+000 -3.906584e-001
      outer loop
         vertex -1.603607e-002 2.500000e-003 -4.027913e-002
         vertex -1.714822e-002 -2.500000e-003 -4.239816e-002
         vertex -1.714822e-002 2.500000e-003 -4.239816e-002
      endloop
   endfacet
   facet normal 9.870222e-001 0.000000e+000 -1.605841e-001
      outer loop
         vertex -1.714822e-002 2.500000e-003 -4.239816e-002
         vertex -1.714822e-002 -2.500000e-003 -4.239816e-002
         vertex -1.729351e-002 2.500000e-003 -4.359474e-002
      endloop
   endfacet
endsolid